<svg width="263" height="492" viewBox="0 0 263 492" fill="none" xmlns="http://www.w3.org/2000/svg">
<path d="M142.969 463.416C151.514 465.61 141.397 456.554 137.124 442.535C135.727 430.818 133.758 425.334 133.403 415.444C133.128 407.791 118.543 405.459 119.309 423.041C119.69 431.779 122.308 441.768 123.375 449.904C123.457 452.482 125.828 458.094 128.848 458.582C136.625 461.385 141.332 462.996 142.969 463.416Z" fill="#FFB0B6"/>
<path d="M142.426 454.149C141.32 459.431 138.132 459.874 132.864 455.481C130.459 453.475 127.308 450.037 124.799 447.73C123.127 446.192 122.377 444.172 122.55 441.669C118.317 446.138 116.717 449.615 117.751 452.101C118.247 453.295 119.914 472.334 121.243 472.219C122.022 472.152 122.075 466.444 121.404 455.095C129.282 464.196 134.459 469.514 136.935 471.047C138.93 472.282 153.797 472.411 156.173 471.361C158.549 470.311 157.582 466.795 155.239 464.774C153.677 463.427 149.406 459.886 142.426 454.149Z" fill="#0A1039"/>
<path d="M132.956 189.604C130.847 186.176 125.968 191.164 116.967 187.056C106.791 182.412 80.1362 176.991 76.4027 181.88C73.9486 183.838 61.1847 196.425 61.0158 216.593C60.9794 220.939 75.2837 240.248 98.3949 247.249C102.786 260.928 109.813 296.811 110.516 307.507C111.219 318.203 104.463 326.545 103.986 338.344C103.673 346.079 105.359 358.651 109.148 380.879C111.245 393.176 113.985 408.429 117.387 427.453C117.151 433.411 134.272 433.864 135.065 427.96C135.039 407.248 136.387 388.816 137.831 374.686C138.808 365.125 139.83 357.534 140.501 352.54C145.236 317.295 146.135 315.839 151.726 303.938C158.234 290.085 151.892 276.555 137.831 220.848C137.831 209.012 135.065 193.032 132.956 189.604Z" fill="#020687"/>
<path d="M27.9227 479.168C34.7372 484.629 42.5905 478.816 31.0612 457.75C34.5177 446.494 34.9509 440.693 38.611 431.525C41.4431 424.431 29.2435 416.399 22.8589 432.751C19.6854 440.879 18.0239 451.053 15.7106 458.908C14.7468 461.293 14.6239 467.373 17.1479 469.042C17.1479 469.042 25.9646 477.599 27.9227 479.168Z" fill="#FFB0B6"/>
<path d="M35.8791 469.784C35.8791 469.784 34.2472 477.702 26.4151 471.102C24.0319 469.093 20.9073 465.651 18.4211 463.341C15.9348 461.031 16.1853 457.278 16.1853 457.278C16.1853 457.278 11.114 460.873 11.9079 466.47C12.0209 467.268 12.1678 468.294 12.3411 469.467C13.3841 476.53 15.3828 488.917 16.7167 488.732C17.8689 488.571 16.2879 470.751 16.2879 470.751C16.2879 470.751 28.2461 485.925 32.1841 487.601C34.423 488.554 46.7126 487.401 49.5114 487.011C52.3102 486.622 50.8997 482.448 48.5772 480.425C46.2547 478.401 35.8791 469.784 35.8791 469.784Z" fill="#0A1039"/>
<path d="M136.674 205.54C137.327 206.209 132.282 216.149 112.22 246.227C106.599 296.687 100.463 324.219 93.8116 328.823C83.1554 336.2 78.6025 342.641 61.9894 374.196C56.1571 385.274 47.2783 407.163 35.353 439.863C32.5701 445.149 19.2278 438.717 21.5042 433.19C29.1249 379.765 35.2345 347.482 39.8328 336.34C44.3489 325.398 58.6166 321.418 58.6849 321.279C63.0513 268.047 64.3209 239.452 62.4936 235.495C54.0146 217.134 62.8092 198.977 64.2064 196.171C65.5144 190.171 73.5383 186.035 78.4032 180.706C80.0993 178.848 92.1144 183.901 103.372 183.843C113.329 183.792 130.815 181.158 131.754 183.843C132.908 187.146 136.674 201.556 136.674 205.54Z" fill="#374ABE"/>
<path d="M34.6171 436.176C34.6171 436.176 28.872 434.898 23.3725 431.986" stroke="white"/>
<path d="M30.7256 432.097C30.7256 432.097 44.5774 354.688 57.6993 340.86C70.8213 327.031 95.2767 251.378 87.0959 207.39" stroke="white" stroke-linecap="round" stroke-linejoin="round" stroke-dasharray="4 4"/>
<path d="M59.9942 226.764L70.6875 214.83L70.6875 197.156" stroke="white"/>
<path d="M105.42 198.007C105.42 198.007 100.296 217.941 88.3103 220.497" stroke="white"/>
<path d="M205.875 177.646C179.891 179.455 152.892 174.676 124.877 163.308C98.1015 135.672 82.4283 120.076 80.6845 114.059C78.0688 105.034 81.4895 94.4859 91.836 91.7751C102.183 89.0643 106.509 99.2275 107.56 108.319C108.26 114.38 116.678 121.688 133.348 148.02C139.808 147.995 145.635 149.422 150.83 152.303C172.15 164.126 190.074 170.103 204.909 171.559C208.098 171.872 213.879 165.27 216.69 164.736C219.69 164.166 223.168 166.589 222.896 168.036C222.624 169.483 225.128 168.962 225.245 169.285C225.427 169.788 229.212 173.666 228.836 174.96C228.596 175.785 227.526 176.985 226.447 178.025C227.723 179.227 228.11 180.109 227.607 180.67C227.103 181.232 226.052 182.076 224.453 183.202C225.182 183.346 225.231 183.882 224.601 184.81C223.655 186.203 219.819 189.013 217.331 187.505C215.672 186.5 211.853 183.213 205.875 177.646Z" fill="#FFB0B6"/>
<path d="M187.314 167.094C184.462 166.256 184.205 166.687 181.2 165.659C184.742 150.259 136.128 142.148 136.128 142.148C122.92 118.174 120.197 114.426 115.908 104.575C111.62 94.7239 102.182 89.0643 91.8356 91.7751C81.4891 94.4859 78.0684 105.034 80.684 114.059C82.4278 120.076 88.5704 146.51 115.346 174.146C115.346 174.146 172.081 193.991 178.207 177.42C180.661 177.756 182.908 177.951 185.024 178.121C188.813 178.424 190.038 167.894 187.314 167.094Z" fill="#FF5932"/>
<path d="M181.209 165.629C181.478 170.981 177.999 177.463 177.999 177.463L184.792 178.148C184.792 178.148 184.587 167.314 182.903 166.171C182.465 166.051 181.815 165.862 181.209 165.629Z" fill="#EF1C00"/>
<path d="M126.308 82.303C126.229 82.2487 127.728 81.6039 127.716 81.1352C127.652 78.4995 126.938 70.8264 126.514 70.5423C118.667 65.2853 114.374 63.0302 110.847 61.3923C106.772 65.6311 102.281 71.3163 97.4968 76.6257C96.9882 77.1901 98.0522 78.8582 97.4973 79.3839C96.5971 80.2367 93.1019 79.3832 89.2044 82.2971C82.1432 87.5763 74.2141 110.017 86.4011 157.744C88.2666 165.05 57.4566 190.414 66.4422 190.124C75.8647 189.821 134.728 196.833 134.663 187.966C134.648 185.867 130.595 181.27 130.471 178.671C130.365 176.427 137.529 177.1 140.72 172.878C143.91 168.656 147.733 125.846 145.365 117.231C142.91 108.299 129.517 84.4897 126.308 82.303Z" fill="#FB5934"/>
<path fill-rule="evenodd" clip-rule="evenodd" d="M100.857 192.098C100.858 192.105 100.859 192.112 100.859 192.119C100.833 192.118 100.806 192.117 100.78 192.115C100.37 192.096 99.9595 192.077 99.5492 192.057C95.937 191.879 92.33 191.662 88.8847 191.437C86.0831 191.254 83.3884 191.066 80.8845 190.892C74.1367 190.422 68.7746 190.049 66.4422 190.124C61.8912 190.271 67.5488 183.837 73.9991 176.501C80.2842 169.353 87.3218 161.35 86.4012 157.744C78.6936 127.559 79.0321 107.489 82.1084 95.4773L82.1567 95.4227C82.4933 95.0421 82.7843 94.713 83.0246 94.435C89.1629 87.3321 99.87 84.4666 107.786 91.6745C115.702 98.8825 116.106 109.88 110.188 118.835C106.204 124.865 104.151 128.795 99.3003 138.083C96.947 142.588 93.9349 148.355 89.7241 156.234C93.7427 165.447 96.6848 173.42 98.5504 180.153C107.292 180.838 118.124 180.022 131.047 177.703C130.666 177.962 130.452 178.27 130.471 178.671C130.516 179.606 131.069 180.8 131.759 182.043C119.407 186.888 109.107 190.239 100.857 192.098Z" fill="#EF1C00"/>
<path d="M97.3484 77.1301C97.3484 77.1301 123.039 81.3659 126.328 81.3664C126.872 81.3665 127.744 81.2194 127.736 81.2431C127.717 81.3051 126.328 82.3462 126.328 82.3462C126.328 82.3462 100.292 81.6799 98.8748 81.1253C97.4573 80.5706 96.2993 79.847 96.2993 79.847C96.2993 79.847 97.6514 79.4642 97.6513 78.976C97.6512 78.4879 97.3484 77.1301 97.3484 77.1301Z" fill="#EF1C00"/>
<path d="M236.103 160.898C236.255 152.203 229.328 145.03 220.633 144.878C211.937 144.727 204.765 151.653 204.613 160.349L204.515 165.943C204.364 174.638 211.29 181.811 219.986 181.963C228.681 182.114 235.853 175.188 236.005 166.492L236.103 160.898Z" stroke="#0A1039" stroke-width="2"/>
<path d="M251.993 165.607C251.801 164.693 251.004 164.034 250.07 164.017L199.284 163.131C198.207 163.112 197.308 163.95 197.252 165.026L195.213 203.891C195.156 204.976 195.975 205.908 197.058 205.99L254.358 210.346L258.974 210.081C260.195 210.011 261.068 208.871 260.817 207.674L251.993 165.607Z" fill="#7090C2"/>
<path d="M251.815 165.857C251.734 164.83 250.886 164.032 249.856 164.014L192.992 163.021C192.057 163.005 191.235 163.64 191.014 164.549L180.751 206.842C180.449 208.087 181.379 209.291 182.659 209.313L253.126 210.543C254.306 210.564 255.247 209.563 255.155 208.387L251.815 165.857Z" fill="white"/>
<path d="M249.579 171.633L219.389 190.355L192.875 170.643" stroke="#2D3053" stroke-width="2" stroke-linecap="round" stroke-linejoin="round"/>
<path d="M153.32 218.472C129.913 207.047 108.921 189.409 90.3434 165.556C80.9724 128.235 75.1973 106.892 76.6956 100.809C78.9431 91.685 87.1794 84.2607 97.4951 87.0864C107.811 89.912 106.476 100.877 102.84 109.276C100.417 114.875 104.052 125.413 105.323 156.552C110.93 159.76 115.263 163.91 118.321 169.002C130.874 189.901 143.407 204.039 155.527 212.718C158.133 214.584 166.44 211.756 169.141 212.699C172.024 213.706 173.825 217.543 172.866 218.66C171.907 219.777 174.336 220.578 174.276 220.916C174.182 221.443 175.521 226.694 174.548 227.626C173.928 228.221 172.401 228.726 170.947 229.086C171.451 230.765 171.345 231.722 170.628 231.957C169.912 232.192 168.58 232.397 166.632 232.573C167.191 233.062 166.965 233.551 165.955 234.04C164.44 234.773 159.713 235.289 158.312 232.738C157.378 231.038 155.714 226.283 153.32 218.472Z" fill="#FFB0B6"/>
<path d="M142.522 200.053C140.471 197.902 140.033 198.147 137.945 195.754C148.712 184.188 110.667 152.856 110.667 152.856C111.215 125.49 110.731 120.883 111.943 110.208C113.154 99.5324 107.811 89.912 97.495 87.0863C87.1793 84.2607 78.943 91.6849 76.6956 100.809C75.1973 106.892 67.2996 132.856 76.6706 170.177C76.6706 170.177 115.882 215.73 129.472 204.443C131.43 205.961 133.278 207.253 135.026 208.458C138.156 210.616 144.481 202.109 142.522 200.053Z" fill="#FF5932"/>
<path d="M137.967 195.733C135.525 200.502 129.27 204.376 129.27 204.376L134.811 208.366C134.811 208.366 140.05 198.881 139.163 197.049C138.844 196.726 138.376 196.237 137.967 195.733Z" fill="#EF1C00"/>
<path d="M153.147 21.0147C152.323 32.6885 156.777 40.1694 158.747 49.8224C159.744 54.7028 159.114 58.494 157.652 63.7275C156.777 66.8629 156.777 67.9025 156.777 69.2691C156.777 70.7374 155.596 67.2329 156.777 63.2483C159.505 54.0392 155.896 43.8737 153.763 38.4558C151.629 33.0379 151.986 29.5461 151.629 28.7377C152.117 30.3093 150.157 23.3214 153.763 41.9007C157.369 60.4801 150.443 62.2084 153.763 73.0168C153.802 73.4542 146.892 75.3054 143.982 75.8419C143.982 72.9272 143.531 71.7525 143.488 70.9409C143.445 70.1293 141.511 75.7786 140.859 75.8419C130.753 76.8227 117.183 75.3891 111.353 66.8629C101.456 52.3878 116.877 42.7757 118.986 33.9659C121.095 25.156 119.627 21.3333 129.297 20.495C135.369 19.9686 153.645 13.9538 153.147 21.0147Z" fill="#510000"/>
<path d="M139.443 73.1856C136.45 73.445 107.095 62.4126 105.619 45.6969C104.143 28.9811 106.564 15.1168 123.447 13.6532C140.33 12.1896 145.144 25.4268 146.62 42.1425C146.683 42.8565 145.918 44.778 146.26 45.6969C147.7 49.5628 151.051 53.5417 151.04 56.2169C151.029 58.803 146.956 58.803 146.729 59.9726C145.275 67.4591 141.821 72.9795 139.443 73.1856Z" fill="#FFB0B6"/>
<path d="M146.679 59.1443C146.293 59.1443 146.051 59.0713 146.051 58.8803C146.051 58.6892 148.356 58.1244 148.356 58.3155C148.356 58.5066 147.064 59.1443 146.679 59.1443Z" fill="#7D3532"/>
<path d="M145.495 59.1978C145.403 59.0029 144.741 58.9177 144.413 58.2284C144.085 57.5391 145.094 55.9385 144.917 56.0935C144.741 56.2486 144.005 57.874 144.024 58.2351C144.075 59.1978 145.587 59.3927 145.495 59.1978Z" fill="#FF6868"/>
<path d="M142.072 44.0426C142.889 44.6353 143.509 45.4193 143.786 45.5444C144.065 45.6701 143.061 43.1513 141.619 42.4121C141.554 42.3671 141.483 42.333 141.406 42.3113C141.388 42.3061 141.369 42.3017 141.351 42.298C141.323 42.2885 141.295 42.2797 141.266 42.2716C139.64 41.8095 136.547 44.1369 136.905 44.1867C137.126 44.2176 138.548 43.4133 139.951 43.3517C139.881 43.4979 139.821 43.6555 139.773 43.8222C139.481 44.8301 139.739 45.7877 140.35 45.9611C140.96 46.1345 141.691 45.458 141.983 44.4501C142.023 44.3128 142.052 44.1763 142.072 44.0426Z" fill="#510000"/>
<path d="M142.85 37.5464C145.003 38.281 145.906 41.7926 143.946 40.7235C140.195 38.6777 135.398 39.3828 135.481 39.1309C135.676 38.5338 140.698 36.8119 142.85 37.5464Z" fill="#510000"/>
<path d="M145.14 34.0635C145.14 34.0635 142.214 35.8449 136.389 44.0479C130.565 52.2509 129.352 71.0028 140.042 77.8474C129.629 75.4706 126.341 50.2591 138.326 37.9773C123.036 53.1493 132.39 76.849 132.52 78.3287C132.63 79.5663 118.808 80.3287 110.691 78.3287C109.448 71.3355 107.795 65.8433 110.2 60.8903C110.749 59.7583 103.58 71.3355 106.77 77.8474C99.6138 76.9301 92.1844 75.6684 86.2441 74.2202C85.4682 74.031 87.1394 68.4862 87.6864 66.0119C88.2334 63.5375 82.6819 73.2784 82.0657 73.0925C78.7801 72.1011 76.3039 71.0483 75.1144 69.9768C68.1724 63.7232 80.32 51.3905 85.2453 34.9495C90.1706 18.5085 99.0131 5.17687 108.683 4.33854C114.755 3.81215 130.275 13.4567 142.214 12.4217C150.426 11.7097 152.776 14.6708 153.179 19.2279C154.26 31.4752 145.14 34.0635 145.14 34.0635Z" fill="#510000"/>
<path d="M144.256 62.3388C142.495 62.3789 143.28 63.2759 140.514 61.845C141.976 63.4472 142.445 64.4003 145.905 64.1793C146.066 63.8538 146.962 63.3503 146.206 62.2943C146.133 62.1923 146.298 62.6212 145.782 62.6675C145.517 62.6913 144.853 62.3252 144.256 62.3388Z" fill="#FF5932"/>
<path d="M140.663 61.9983C142.224 63.7247 141.332 65.2702 145.03 65.8715C145.47 65.9431 146.427 65.1109 145.796 64.0626C145.291 63.2247 142.268 63.1103 140.663 61.9983Z" fill="#FF5932"/>
<path d="M140.826 62.1846C141.456 62.9566 142.892 64.0733 143.535 64.2949C143.945 64.4362 146.106 64.5724 145.92 64.2949C145.873 64.2246 145.873 64.1692 145.92 64.1234C145.379 64.1234 145.216 63.827 144.892 63.7952C144.666 63.7731 144.021 63.9768 143.721 63.9635C142.694 63.9183 141.616 62.889 140.826 62.1405C140.82 62.1349 140.197 61.4126 140.826 62.1846Z" fill="#F01B00"/>
<path d="M140.405 61.9786C140.577 61.5667 140.659 61.5868 141.54 61.5868C142 61.5868 141.109 61.9003 140.832 62.1632C140.661 62.3251 140.926 63.3163 140.832 63.2756C140.712 63.2241 140.232 62.3906 140.405 61.9786Z" fill="#FF6868"/>
</svg>
