<svg width="169" height="492" viewBox="0 0 169 492" fill="none" xmlns="http://www.w3.org/2000/svg">
<path d="M142.969 463.416C151.514 465.61 141.397 456.554 137.124 442.534C135.727 430.818 133.758 425.334 133.403 415.444C133.128 407.791 118.543 405.459 119.309 423.04C119.69 431.779 122.308 441.768 123.375 449.904C123.457 452.482 125.828 458.094 128.848 458.582C136.625 461.384 141.332 462.996 142.969 463.416Z" fill="#FFB0B6"/>
<path d="M142.426 454.149C141.32 459.43 138.132 459.874 132.864 455.481C130.459 453.475 127.308 450.037 124.799 447.73C123.127 446.192 122.377 444.171 122.55 441.669C118.317 446.138 116.717 449.615 117.751 452.1C118.247 453.295 119.914 472.333 121.243 472.219C122.022 472.152 122.075 466.444 121.404 455.095C129.282 464.196 134.459 469.513 136.935 471.047C138.93 472.282 153.797 472.411 156.173 471.361C158.549 470.31 157.582 466.794 155.239 464.774C153.677 463.427 149.406 459.885 142.426 454.149Z" fill="#0A1039"/>
<path d="M132.956 189.604C130.847 186.176 125.968 191.164 116.967 187.056C106.791 182.411 80.1362 176.99 76.4027 181.88C73.9486 183.838 61.1847 196.425 61.0158 216.593C60.9794 220.939 75.2837 240.248 98.3949 247.249C102.786 260.928 109.813 296.811 110.516 307.507C111.219 318.203 104.463 326.545 103.986 338.344C103.673 346.079 105.359 358.651 109.148 380.879C111.245 393.176 113.985 408.429 117.387 427.453C117.151 433.411 134.272 433.864 135.065 427.96C135.039 407.248 136.387 388.816 137.831 374.686C138.808 365.125 139.83 357.534 140.501 352.54C145.236 317.295 146.135 315.839 151.726 303.938C158.234 290.085 151.892 276.555 137.831 220.848C137.831 209.012 135.065 193.031 132.956 189.604Z" fill="#020687"/>
<path d="M27.9227 479.168C34.7372 484.629 42.5905 478.816 31.0612 457.749C34.5177 446.493 34.9509 440.692 38.611 431.525C41.4431 424.431 29.2435 416.399 22.8589 432.751C19.6854 440.879 18.0239 451.052 15.7106 458.907C14.7468 461.293 14.6239 467.373 17.1479 469.041C17.1479 469.041 25.9646 477.599 27.9227 479.168Z" fill="#FFB0B6"/>
<path d="M35.8791 469.783C35.8791 469.783 34.2472 477.702 26.4151 471.101C24.0319 469.093 20.9073 465.651 18.4211 463.341C15.9348 461.03 16.1853 457.278 16.1853 457.278C16.1853 457.278 11.114 460.873 11.9079 466.47C12.0209 467.267 12.1678 468.294 12.3411 469.467C13.3841 476.53 15.3828 488.917 16.7167 488.731C17.8689 488.571 16.2879 470.75 16.2879 470.75C16.2879 470.75 28.2461 485.925 32.1841 487.601C34.423 488.554 46.7126 487.401 49.5114 487.011C52.3102 486.621 50.8997 482.448 48.5772 480.424C46.2547 478.401 35.8791 469.783 35.8791 469.783Z" fill="#0A1039"/>
<path d="M136.674 205.54C137.327 206.208 132.282 216.148 112.22 246.226C106.599 296.687 100.463 324.219 93.8116 328.823C83.1554 336.2 78.6025 342.64 61.9894 374.196C56.1571 385.274 47.2783 407.163 35.353 439.862C32.5701 445.148 19.2278 438.717 21.5042 433.19C29.1249 379.765 35.2345 347.482 39.8328 336.34C44.3489 325.398 58.6166 321.418 58.6849 321.279C63.0513 268.047 64.3209 239.452 62.4936 235.495C54.0146 217.133 62.8092 198.977 64.2064 196.171C65.5144 190.17 73.5383 186.035 78.4032 180.705C80.0993 178.848 92.1144 183.901 103.372 183.843C113.329 183.791 130.815 181.158 131.754 183.843C132.908 187.146 136.674 201.556 136.674 205.54Z" fill="#374ABE"/>
<path d="M34.6171 436.176C34.6171 436.176 28.872 434.898 23.3725 431.986" stroke="white"/>
<path d="M30.7256 432.097C30.7256 432.097 44.5774 354.688 57.6993 340.86C70.8213 327.031 95.2767 251.378 87.0959 207.39" stroke="white" stroke-linecap="round" stroke-linejoin="round" stroke-dasharray="4 4"/>
<path d="M59.9942 226.763L70.6875 214.83L70.6875 197.155" stroke="white"/>
<path d="M105.42 198.007C105.42 198.007 100.296 217.941 88.3103 220.497" stroke="white"/>
<path d="M126.308 82.3028C126.229 82.2485 127.728 81.6037 127.716 81.1349C127.652 78.4993 126.938 70.8262 126.514 70.5421C118.667 65.285 114.374 63.0299 110.847 61.3921C106.772 65.6308 102.281 71.316 97.4968 76.6254C96.9882 77.1898 98.0522 78.858 97.4973 79.3837C96.5971 80.2364 93.1019 79.383 89.2044 82.2969C82.1432 87.576 74.2141 110.016 86.4011 157.744C88.2666 165.05 57.4566 190.413 66.4422 190.124C75.8647 189.821 134.728 196.833 134.663 187.966C134.648 185.867 130.595 181.27 130.471 178.671C130.365 176.426 137.529 177.1 140.72 172.877C143.91 168.655 147.733 125.845 145.365 117.23C142.91 108.299 129.517 84.4895 126.308 82.3028Z" fill="#FB5934"/>
<path fill-rule="evenodd" clip-rule="evenodd" d="M100.857 192.098C100.858 192.105 100.859 192.112 100.859 192.119C100.833 192.118 100.806 192.116 100.78 192.115C100.37 192.096 99.9595 192.076 99.5492 192.056C95.937 191.879 92.33 191.661 88.8847 191.436C86.0831 191.254 83.3884 191.066 80.8845 190.892C74.1367 190.422 68.7746 190.049 66.4422 190.124C61.8912 190.271 67.5488 183.836 73.9991 176.501C80.2842 169.353 87.3218 161.35 86.4012 157.744C78.6936 127.559 79.0321 107.489 82.1084 95.4771L82.1567 95.4225C82.4933 95.0418 82.7843 94.7128 83.0246 94.4348C89.1629 87.3318 99.87 84.4663 107.786 91.6743C115.702 98.8822 116.106 109.88 110.188 118.835C106.204 124.865 104.151 128.795 99.3003 138.082C96.947 142.588 93.9349 148.355 89.7241 156.234C93.7427 165.447 96.6848 173.419 98.5504 180.152C107.292 180.838 118.124 180.022 131.047 177.702C130.666 177.962 130.452 178.27 130.471 178.671C130.516 179.606 131.069 180.8 131.759 182.042C119.407 186.887 109.107 190.239 100.857 192.098Z" fill="#EF1C00"/>
<path d="M97.3484 77.1297C97.3484 77.1297 123.039 81.3655 126.328 81.366C126.872 81.3661 127.744 81.219 127.736 81.2427C127.717 81.3047 126.328 82.3458 126.328 82.3458C126.328 82.3458 100.292 81.6796 98.8748 81.1249C97.4573 80.5702 96.2993 79.8466 96.2993 79.8466C96.2993 79.8466 97.6514 79.4638 97.6513 78.9756C97.6512 78.4875 97.3484 77.1297 97.3484 77.1297Z" fill="#EF1C00"/>
<path d="M107.425 257.275C107.576 248.58 100.65 241.407 91.9546 241.256C83.2589 241.104 76.0866 248.03 75.9349 256.726L75.8372 262.32C75.6854 271.016 82.6116 278.188 91.3073 278.34C100.003 278.492 107.175 271.565 107.327 262.87L107.425 257.275Z" stroke="#0A1039" stroke-width="2"/>
<path d="M123.315 261.984C123.123 261.07 122.325 260.411 121.392 260.395L70.6055 259.508C69.5283 259.489 68.6298 260.327 68.5734 261.403L66.5345 300.268C66.4776 301.353 67.297 302.285 68.3802 302.367L125.68 306.723L130.296 306.458C131.517 306.388 132.39 305.248 132.138 304.051L123.315 261.984Z" fill="#7090C2"/>
<path d="M123.137 262.234C123.056 261.207 122.208 260.409 121.178 260.391L64.3142 259.398C63.3784 259.382 62.5564 260.017 62.3357 260.926L52.0725 303.219C51.7704 304.464 52.7003 305.668 53.9812 305.69L124.448 306.92C125.628 306.941 126.569 305.941 126.476 304.764L123.137 262.234Z" fill="white"/>
<path d="M120.9 268.01L90.7112 286.732L64.1963 267.02" stroke="#2D3053" stroke-width="2" stroke-linecap="round" stroke-linejoin="round"/>
<path d="M85.2565 232.85C71.4606 210.757 63.0053 184.674 59.8906 154.601C71.7205 117.986 78.1333 96.8252 82.6273 92.4608C89.3682 85.9141 100.287 83.9826 107.538 91.8454C114.789 99.7081 107.846 108.299 100.313 113.496C95.29 116.96 92.7888 127.823 77.3657 154.904C80.4205 160.595 81.8956 166.411 81.791 172.35C81.3616 196.725 84.4987 215.357 90.1776 229.139C91.3984 232.102 99.9416 234.106 101.733 236.338C103.644 238.719 103.138 242.927 101.733 243.366C100.327 243.805 101.963 245.772 101.733 246.027C101.375 246.424 99.7268 251.587 98.4081 251.862C97.5669 252.037 96.0045 251.656 94.5802 251.192C94.1181 252.883 93.521 253.638 92.7888 253.457C92.0567 253.277 90.8181 252.745 89.0731 251.862C89.2882 252.573 88.8379 252.868 87.7221 252.747C86.0486 252.566 81.7664 250.498 81.9298 247.593C82.0387 245.656 83.1476 240.742 85.2565 232.85Z" fill="#FFB0B6"/>
<path d="M85.8595 211.508C85.2604 208.596 84.7591 208.572 84.2562 205.436C99.5164 201.334 83.8555 154.601 83.8555 154.601C98.8224 131.684 100.853 127.521 107.538 119.11C114.222 110.698 114.789 99.7082 107.538 91.8454C100.287 83.9826 89.3679 85.9142 82.627 92.4608C78.133 96.8252 57.6764 114.659 45.8465 151.275C45.8465 151.275 54.9597 210.685 72.4663 208.315C73.3219 210.64 74.2047 212.715 75.0487 214.663C76.5596 218.151 86.4319 214.289 85.8595 211.508Z" fill="#FF5932"/>
<path d="M84.2867 205.43C79.6884 208.18 72.3311 208.151 72.3311 208.151L74.9155 214.471C74.9155 214.471 84.385 209.203 84.6038 207.18C84.5043 206.737 84.3662 206.074 84.2867 205.43Z" fill="#EF1C00"/>
<path d="M153.147 21.0146C152.323 32.6884 156.777 40.1693 158.747 49.8223C159.744 54.7026 159.114 58.4939 157.652 63.7274C156.777 66.8628 156.777 67.9024 156.777 69.269C156.777 70.7373 155.596 67.2328 156.777 63.2482C159.505 54.039 155.896 43.8736 153.763 38.4557C151.629 33.0378 151.986 29.546 151.629 28.7376C152.117 30.3092 150.157 23.3212 153.763 41.9006C157.369 60.48 150.443 62.2083 153.763 73.0167C153.802 73.4541 146.892 75.3053 143.982 75.8418C143.982 72.9271 143.531 71.7523 143.488 70.9407C143.445 70.1292 141.511 75.7785 140.859 75.8418C130.753 76.8226 117.183 75.389 111.353 66.8628C101.456 52.3877 116.877 42.7756 118.986 33.9658C121.095 25.1559 119.627 21.3332 129.297 20.4949C135.369 19.9685 153.645 13.9537 153.147 21.0146Z" fill="#510000"/>
<path d="M139.443 73.1856C136.45 73.445 107.095 62.4126 105.619 45.6969C104.143 28.9811 106.564 15.1168 123.447 13.6532C140.33 12.1896 145.144 25.4268 146.62 42.1425C146.683 42.8565 145.918 44.778 146.26 45.6969C147.7 49.5628 151.051 53.5417 151.04 56.2169C151.029 58.803 146.956 58.803 146.729 59.9726C145.275 67.4591 141.821 72.9795 139.443 73.1856Z" fill="#FFB0B6"/>
<path d="M146.679 59.1443C146.293 59.1443 146.051 59.0713 146.051 58.8803C146.051 58.6892 148.356 58.1244 148.356 58.3155C148.356 58.5066 147.064 59.1443 146.679 59.1443Z" fill="#7D3532"/>
<path d="M145.495 59.1979C145.403 59.003 144.741 58.9178 144.413 58.2285C144.085 57.5393 145.094 55.9386 144.917 56.0936C144.741 56.2487 144.005 57.8741 144.024 58.2353C144.075 59.1979 145.587 59.3928 145.495 59.1979Z" fill="#FF6868"/>
<path d="M142.072 44.0426C142.889 44.6353 143.509 45.4193 143.786 45.5444C144.065 45.6701 143.061 43.1513 141.619 42.4121C141.554 42.3671 141.483 42.333 141.406 42.3113C141.388 42.3061 141.369 42.3017 141.351 42.298C141.323 42.2885 141.295 42.2797 141.266 42.2716C139.64 41.8095 136.547 44.1369 136.905 44.1867C137.126 44.2176 138.548 43.4133 139.951 43.3517C139.881 43.4979 139.821 43.6555 139.773 43.8222C139.481 44.8301 139.739 45.7877 140.35 45.9611C140.96 46.1345 141.691 45.458 141.983 44.4501C142.023 44.3128 142.052 44.1763 142.072 44.0426Z" fill="#510000"/>
<path d="M142.85 37.5463C145.003 38.2809 145.906 41.7925 143.946 40.7234C140.195 38.6776 135.398 39.3827 135.481 39.1308C135.676 38.5336 140.698 36.8118 142.85 37.5463Z" fill="#510000"/>
<path d="M145.14 34.0634C145.14 34.0634 142.214 35.8448 136.389 44.0477C130.565 52.2507 129.352 71.0027 140.042 77.8473C129.629 75.4705 126.341 50.259 138.326 37.9772C123.036 53.1492 132.39 76.8489 132.52 78.3286C132.63 79.5662 118.808 80.3286 110.691 78.3286C109.448 71.3354 107.795 65.8432 110.2 60.8902C110.749 59.7582 103.58 71.3354 106.77 77.8473C99.6138 76.93 92.1844 75.6683 86.2441 74.22C85.4682 74.0309 87.1394 68.4861 87.6864 66.0117C88.2334 63.5374 82.6819 73.2783 82.0657 73.0924C78.7801 72.101 76.3039 71.0482 75.1144 69.9767C68.1724 63.7231 80.32 51.3904 85.2453 34.9494C90.1706 18.5084 99.0131 5.17675 108.683 4.33842C114.755 3.81203 130.275 13.4566 142.214 12.4215C150.426 11.7096 152.776 14.6707 153.179 19.2278C154.26 31.4751 145.14 34.0634 145.14 34.0634Z" fill="#510000"/>
<path d="M144.256 62.3385C142.495 62.3787 143.28 63.2756 140.514 61.8447C141.976 63.447 142.445 64.4001 145.905 64.179C146.066 63.8536 146.962 63.3501 146.206 62.294C146.133 62.1921 146.298 62.6209 145.782 62.6672C145.517 62.691 144.853 62.3249 144.256 62.3385Z" fill="#FF5932"/>
<path d="M140.663 61.9982C142.224 63.7245 141.332 65.2701 145.03 65.8714C145.47 65.9429 146.427 65.1108 145.796 64.0625C145.291 63.2245 142.268 63.1102 140.663 61.9982Z" fill="#FF5932"/>
<path d="M140.826 62.1844C141.456 62.9564 142.892 64.0731 143.535 64.2947C143.945 64.4359 146.106 64.5722 145.92 64.2947C145.873 64.2243 145.873 64.169 145.92 64.1231C145.379 64.1231 145.216 63.8267 144.892 63.795C144.666 63.7729 144.021 63.9765 143.721 63.9633C142.694 63.9181 141.616 62.8887 140.826 62.1403C140.82 62.1346 140.197 61.4124 140.826 62.1844Z" fill="#F01B00"/>
<path d="M140.405 61.9784C140.577 61.5664 140.659 61.5866 141.54 61.5866C142 61.5866 141.109 61.9001 140.832 62.1629C140.661 62.3249 140.926 63.3161 140.832 63.2754C140.712 63.2238 140.232 62.3903 140.405 61.9784Z" fill="#FF6868"/>
</svg>
