<svg width="348" height="455" viewBox="0 0 348 455" fill="none" xmlns="http://www.w3.org/2000/svg">
<path d="M189.34 406.283C180.484 175.558 206.331 53.8461 266.879 41.1479C327.427 28.4497 301.581 150.162 189.34 406.283Z" fill="white"/>
<path d="M190.909 381.756C190.909 381.756 232.345 143.712 263.403 107.663" stroke="#7990DD" stroke-width="2" stroke-linecap="round"/>
<path d="M178.889 448.232C171.399 278.972 14.2175 67.9187 124.019 6.49332C233.82 -54.932 197.444 376.997 178.889 448.232Z" fill="#7990DD"/>
<path d="M184.556 399.219C184.556 399.219 152.425 138.155 140.127 87.2169" stroke="white" stroke-width="2" stroke-linecap="round"/>
<path d="M196.856 429.897C109.443 321.358 28.6974 292.969 27.4928 344.675C26.2883 396.38 117.077 365.876 196.856 429.897Z" fill="#7990DD"/>
<path d="M174.933 411.825C174.933 411.825 144.208 376.737 78.5342 350.063" stroke="white" stroke-width="2" stroke-linecap="round"/>
<path d="M174 448.989C195.115 313.429 297.336 148.715 339.866 235.883C382.397 323.052 233.434 365.938 174 448.989Z" fill="#7990DD"/>
<path d="M179.018 436.843C179.018 436.843 227.639 329.577 282.865 285.558" stroke="white" stroke-width="2" stroke-linecap="round"/>
<path d="M171.993 454.204C197.337 404.443 287.912 355.422 319.345 396.751C350.778 438.08 203.325 432.672 171.993 454.204Z" fill="white"/>
<path d="M293.315 402.387C293.315 402.387 234.539 402.387 175.763 448.297" stroke="#7990DD" stroke-width="2" stroke-linecap="round"/>
<path d="M182.286 426.74C137.5 233.246 44.8605 145.395 6.29154 210.003C-32.2774 274.61 116.417 294.453 182.286 426.74Z" fill="white"/>
<path d="M170.8 394.993C170.8 394.993 127.85 300.583 62.8691 257.127" stroke="#7990DD" stroke-width="2" stroke-linecap="round"/>
</svg>
