<svg width="44" height="43" viewBox="0 0 44 43" fill="none" xmlns="http://www.w3.org/2000/svg">
<path fill-rule="evenodd" clip-rule="evenodd" d="M24.1725 4.56338L6.72015 13.8408C6.62047 14.1409 6.64809 14.4688 6.79658 14.748L19.3079 38.2754C19.6077 38.8392 20.3078 39.0532 20.8716 38.7535L36.9094 30.2271C37.4732 29.9273 37.6873 29.2273 37.3874 28.6635L24.8738 5.13172C24.7267 4.85508 24.4736 4.64998 24.1725 4.56338ZM23.3837 31.2825C23.8278 32.1178 23.5084 33.1561 22.6702 33.6017C21.8321 34.0473 20.7925 33.7314 20.3484 32.8962C19.9043 32.061 20.2237 31.0227 21.0618 30.5771C21.9 30.1315 22.9395 30.4473 23.3837 31.2825Z" fill="white"/>
</svg>
