<?xml version="1.0" encoding="UTF-8"?>
<svg width="1137px" height="546px" viewBox="0 0 1137 546" version="1.1" xmlns="http://www.w3.org/2000/svg" xmlns:xlink="http://www.w3.org/1999/xlink">
    <!-- Generator: Sketch 52.3 (67297) - http://www.bohemiancoding.com/sketch -->
    <title>Seller</title>
    <desc>Created with Sketch.</desc>
    <g id="Page-1" stroke="none" stroke-width="1" fill="none" fill-rule="evenodd">
        <g id="4" transform="translate(-152.000000, -355.000000)" fill-rule="nonzero">
            <g id="Seller" transform="translate(152.000000, 355.000000)">
                <path d="M645.938972,193.977084 L645.938972,193.977084 C652.057738,193.963668 657.028854,198.913031 657.042271,205.031797 C657.043702,205.684361 656.987475,206.335775 656.874247,206.978443 L647.288685,261.384638 C646.608285,265.246485 643.257257,268.064992 639.335939,268.07359 L639.335939,268.07359 C635.608872,268.081762 632.580862,265.067003 632.57269,261.339936 C632.572669,261.330483 632.572668,261.32103 632.572687,261.311577 L632.681352,207.237133 C632.696054,199.920857 638.622698,193.993127 645.938972,193.977084 Z" id="Seller-base" fill="#FF9179" transform="translate(644.807486, 231.025332) rotate(20.000000) translate(-644.807486, -231.025332) "></path>
                <path d="M645.938972,193.977084 L645.938972,193.977084 C652.057738,193.963668 657.028854,198.913031 657.042271,205.031797 C657.043702,205.684361 656.987475,206.335775 656.874247,206.978443 L647.288685,261.384638 C646.608285,265.246485 643.257257,268.064992 639.335939,268.07359 L639.335939,268.07359 C635.608872,268.081762 632.580862,265.067003 632.57269,261.339936 C632.572669,261.330483 632.572668,261.32103 632.572687,261.311577 L632.681352,207.237133 C632.696054,199.920857 638.622698,193.993127 645.938972,193.977084 Z" id="Seller-base" fill="#FF9179" transform="translate(644.807486, 231.025332) rotate(20.000000) translate(-644.807486, -231.025332) "></path>
                <path d="M728.834346,193.977084 L728.834346,193.977084 C734.953112,193.963668 739.924228,198.913031 739.937644,205.031797 C739.939075,205.684361 739.882849,206.335775 739.76962,206.978443 L730.184058,261.384638 C729.503658,265.246485 726.15263,268.064992 722.231312,268.07359 L722.231312,268.07359 C718.504246,268.081762 715.476236,265.067003 715.468063,261.339936 C715.468043,261.330483 715.468042,261.32103 715.468061,261.311577 L715.576725,207.237133 C715.591428,199.920857 721.518072,193.993127 728.834346,193.977084 Z" id="Seller-base" fill="#FF9179" transform="translate(727.702859, 231.025332) scale(-1, 1) rotate(20.000000) translate(-727.702859, -231.025332) "></path>
                <path d="M649.830614,194.415756 L679.127563,185.016393 L696.197833,185.016393 L723.376283,194.415756 C725.667835,216.641189 725.667835,230.672167 723.376283,236.50869 C714.428087,259.299503 716.775038,266.003112 723.376283,278.070083 C714.039015,288.690733 699.587067,280.689799 686.66047,281.217655 C672.778792,281.784511 660.386606,290.076968 649.830614,278.070083 C654.341637,264.88755 658.305516,258.987643 649.830614,236.50869 C648.40811,232.735619 647.931398,225.268598 648.400479,214.107627 C648.558101,210.357288 649.034813,203.793331 649.830614,194.415756 Z" id="Seller-base" fill="#FFB0B6"></path>
                <path d="M922.791608,234.989706 C709.084313,400.257017 1136.4989,393.071825 1136.4989,436.54508 C1136.4989,509.508164 1037.70405,545.989706 840.114332,545.989706 C331.488451,533.063124 120.038836,451.066187 205.765487,299.998896 C334.355462,73.3979594 -63.5529655,247.909621 8.89061592,73.3142598 C81.3341973,-101.281101 1136.4989,69.7223956 922.791608,234.989706 Z" id="Background-base" fill="#FFE4E5" transform="translate(568.249452, 272.994853) scale(-1, -1) translate(-568.249452, -272.994853) "></path>
                <path d="M664.916905,189.57561 L664.916905,191.152303 C664.916905,202.817795 680.512821,218.213682 686.132002,218.213682 C691.751182,218.213682 707.347098,202.817795 707.347098,191.152303 L707.347098,188.872242 L723.376283,194.415756 C725.667835,216.641189 725.667835,230.672167 723.376283,236.50869 C714.428087,259.299503 716.775038,266.003112 723.376283,278.070083 C713.132071,289.722335 700.331753,278.612188 686.132002,278.070083 C673.490262,277.587459 659.431828,288.990959 649.830614,278.070083 C654.341637,264.88755 658.305516,258.987643 649.830614,236.50869 C648.40811,232.735619 647.931398,225.268598 648.400479,214.107627 C648.558101,210.357288 649.034813,203.793331 649.830614,194.415756 L664.916905,189.57561 Z" id="Seller-base" fill="#FFFFFF"></path>
                <path d="M580.52049,201.231958 C593.980324,203.419897 613.880905,218.48599 640.222231,246.430237 C643.328427,248.783836 644.019894,253.077076 641.80536,256.259701 C639.590826,259.442326 638.791993,258.478052 635.376711,256.568656 C621.108835,241.657456 608.690156,233.32039 598.120674,231.557457 C582.266452,228.913058 562.432425,216.713484 563.92839,204.397724 C563.961354,204.126344 572.879741,199.98993 580.52049,201.231958 Z" id="Seller-base" fill="#FFB0B6" transform="translate(603.474107, 229.665718) rotate(-161.000000) translate(-603.474107, -229.665718) "></path>
                <path d="M632.621811,267.844239 C629.366936,270.736098 618.022353,265.682963 615.683424,264.439715 C604.492123,258.491027 591.589021,240.47739 576.974119,210.398803 C576.364967,209.145119 579.426393,210.398803 583.25136,208.006049 C587.076327,205.613295 586.975623,203.00528 587.847634,204.445605 C595.267452,216.701111 602.231641,224.956345 609.809514,229.023712 C615.600894,232.132192 619.772494,236.193721 624.378828,241.528053 L638.999368,205.648661 C640.615509,201.244963 644.528445,195.884687 648.789638,194.812591 C649.01578,194.755694 656.040315,192.289627 669.863241,187.414389 C669.863241,199.079881 684.028407,248.451812 687.359457,251.633396 C688.901029,249.00887 694.63258,227.602534 704.554107,187.414389 L723.376283,194.415756 C725.667835,216.641189 725.667835,230.672167 723.376283,236.50869 C714.428087,259.299503 716.775038,266.003112 723.376283,278.070083 C713.132071,289.722335 700.331753,278.612188 686.132002,278.070083 C673.490262,277.587459 659.431828,288.990959 649.830614,278.070083 C654.214919,265.257857 658.082387,259.324855 650.51563,238.364323 C643.555274,250.675312 635.123813,265.621285 632.621811,267.844239 Z" id="Seller-base" fill="#5A5D88"></path>
                <path d="M632.621811,267.844239 C631.123923,269.175068 636.445114,261.285317 641.424462,247.037452 C643.42127,241.323799 644.741312,227.231512 646.500246,223.607473 C647.10978,222.351613 645.081806,233.656064 647.256631,236.423417 C646.500246,229.120687 648.949242,218.583264 649.91958,219.510063 C649.235807,224.257944 650.51563,240.000408 657.337151,251.316079 C660.963467,255.281992 675.710706,260.042951 684.964331,260.042951 C689.353245,260.042951 680.871889,264.314597 679.755908,270.226738 C679.692688,270.561659 646.006813,286.513298 651.859823,272.35096 C657.712834,258.188622 650.399294,237.700446 650.51563,238.364323 C643.555274,250.675312 635.123813,265.621285 632.621811,267.844239 Z" id="Seller-base" fill="#3C3F5D"></path>
                <path d="M688.936575,233.826177 C689.175398,233.988192 689.408559,234.158493 689.635631,234.336768 L743.842994,284.51971 C746.860137,286.888492 747.812522,290.884333 745.685827,294.055667 C743.559132,297.227001 739.339997,298.192615 736.026027,296.266461 L678.984312,256.257352 C669.895667,251.858763 660.223117,245.391123 672.899,236.909331 C673.155581,236.737645 683.271613,229.983149 688.936575,233.826177 Z" id="Seller-base" fill="#FFB0B6" transform="translate(706.825568, 264.950628) scale(-1, 1) rotate(-30.000000) translate(-706.825568, -264.950628) "></path>
                <path d="M751.1606,257.506284 C757.953808,271.238392 745.736635,272.312043 735.60955,271.560996 L680.653622,276.325684 C675.712309,276.754097 673.01651,261.298646 677.109194,260.400309 L727.061354,249.29847 C721.568021,236.850956 717.057625,227.578105 713.530167,221.479918 C712.393266,219.51447 715.373509,210.357776 722.470897,194.009836 C727.483785,194.999039 728.899985,197.663484 731.41955,204.5357 C744.574764,239.838334 751.155114,257.495196 751.1606,257.506284 Z" id="Seller-base" fill="#5A5D88"></path>
                <path d="M727.061354,249.29847 C724.909823,244.266732 723.452553,240.924538 722.689544,239.271889 C722.352125,238.541052 718.454052,251.898027 718.190198,251.338216 C717.909642,250.742971 689.961565,258.708363 689.824018,257.850132 C701.498284,255.777514 716.275173,251.338216 718.190198,245.840649 C719.938243,240.822439 721.642686,231.493927 723.303527,217.855113 C722.627326,224.821521 722.627326,232.625008 723.303527,234.526549 C724.104277,236.778329 724.183689,223.954607 725.549705,227.680474 L727.061354,249.29847 Z" id="Seller-base" fill="#3C3F5D"></path>
                <path d="M675.110345,162.186885 L696.703448,162.186885 L696.703448,194.816501 C694.002121,198.890746 690.403271,200.927869 685.906897,200.927869 C681.410522,200.927869 677.811672,198.890746 675.110345,194.816501 L675.110345,162.186885 Z" id="Seller-base" fill="#FFB0B6"></path>
                <path d="M675.110345,155.268852 L696.703448,155.268852 L692.367337,174.644302 C688.174172,185.389644 684.147808,191.634969 680.288247,193.380276 C676.428686,195.125584 674.702718,193.298315 675.110345,187.898469 L675.110345,155.268852 Z" id="Seller-base" fill="#E9989E"></path>
                <g id="Path-9-Copy" transform="translate(652.124138, 110.993443)">
                    <path d="M18.1377277,71.1781891 C26.4930181,71.1781891 53.9040045,54.0277159 53.9040045,38.8090488 C53.9040045,23.5903817 40.4629549,0.0855044773 25.1032449,0.0855044773 C9.74353498,0.0855044773 0.483285565,16.6210086 0.483285565,31.8396758 C0.483285565,34.7375758 3.59292544,37.10199 3.94136705,41.1003138 C4.25360772,44.6832363 3.51912237,51.7810161 3.94136705,53.0183084 C5.26573454,56.899067 15.0866899,71.1781891 18.1377277,71.1781891 Z" id="Seller-base" fill="#FFB0B6"></path>
                    <path d="M11.1449773,59.6738397 C11.1185881,59.5903716 10.8510769,58.0152767 13.1228242,57.9111018 C13.5789227,57.8901866 13.9885437,58.4366757 14.3171622,58.4366757 C14.6730228,58.4366757 15.1251747,57.9248765 15.6184086,57.9111018 C17.273335,57.8648841 20.1833402,59.524171 23.151365,59.2239324 C24.3346505,59.104234 24.1459713,58.3229285 24.4914896,58.3229285 C24.6249474,58.3229285 24.9264555,59.2555075 24.6249474,59.1651576 C24.2237114,59.0449233 24.2956556,59.030126 22.3641519,60.021141 C20.5578862,60.9478989 15.661093,60.2985188 14.3171622,60.2985188 C12.2461297,60.2985188 11.2319371,59.9488907 11.1449773,59.6738397 Z" id="Seller-base" fill="#FF5932"></path>
                    <path d="M12.8106372,62.486148 C16.2149333,63.6029255 18.2445376,63.0798475 21.4395026,61.5704918 C20.6399941,62.7837551 16.9762804,64.6151439 15.3677085,64.501403 C13.7591367,64.3876621 12.897597,62.761199 12.8106372,62.486148 Z" id="Seller-base" fill="#FF6868"></path>
                    <path d="M22.3360517,42.7653611 C22.0581705,42.891051 23.0600029,40.372913 24.498372,39.6338532 C24.5632806,39.5888956 24.6341009,39.5548223 24.7104434,39.5330807 C24.7286128,39.5279062 24.7468897,39.5234887 24.7652591,39.5198144 C24.7932477,39.5102896 24.8213727,39.5014891 24.8496282,39.4934421 C26.4717018,39.0314908 29.556706,41.3582107 29.1999681,41.4080721 C28.9789978,41.4389572 27.5607377,40.6347907 26.1615913,40.573247 C26.231154,40.7194182 26.291255,40.8769957 26.3393659,41.0436348 C26.6302775,42.0512479 26.3726449,43.0086133 25.7639274,43.1819704 C25.1552099,43.3553274 24.4259164,42.6790293 24.1350048,41.6714162 C24.0953477,41.534058 24.0658842,41.3976336 24.0461143,41.2640018 C23.2313872,41.8565004 22.612568,42.6402885 22.3360517,42.7653611 Z" id="Seller-base" fill="#0A1039"></path>
                    <path d="M6.6323212,41.2640018 C5.81759408,41.8565004 5.19877495,42.6402885 4.92225863,42.7653611 C4.64437743,42.891051 5.64620982,40.372913 7.08457891,39.6338532 C7.14948748,39.5888956 7.22030779,39.5548223 7.29665031,39.5330807 C7.31481972,39.5279062 7.33309656,39.5234887 7.35146596,39.5198144 C7.37945463,39.5102896 7.40757955,39.5014891 7.43583514,39.4934421 C9.05790872,39.0314908 12.1429129,41.3582107 11.786175,41.4080721 C11.5652047,41.4389572 10.1469446,40.6347907 8.74779821,40.573247 C8.81736088,40.7194182 8.87746186,40.8769957 8.92557284,41.0436348 C9.2164844,42.0512479 8.95885177,43.0086133 8.35013427,43.1819704 C7.74141676,43.3553274 7.0121233,42.6790293 6.72121174,41.6714162 C6.68155457,41.534058 6.65209113,41.3976336 6.6323212,41.2640018 Z" id="Seller-base" fill="#0A1039" transform="translate(8.345246, 41.320931) scale(-1, 1) translate(-8.345246, -41.320931) "></path>
                    <path d="M28.2485446,34.0775633 C30.3959401,34.8119303 31.2958436,38.3225958 29.3410109,37.2537853 C25.6003514,35.2085689 20.8152095,35.9134419 20.8976013,35.6615946 C21.092899,35.0646276 26.1011491,33.3431963 28.2485446,34.0775633 Z" id="Seller-base" fill="#0A1039" transform="translate(25.658847, 35.676482) scale(-1, 1) translate(-25.658847, -35.676482) "></path>
                    <path d="M10.8347515,34.7693665 C12.982147,35.5037335 13.8820505,39.0143991 11.9272178,37.9455886 C8.18655832,35.9003722 3.4014164,36.6052451 3.48380821,36.3533979 C3.67910589,35.7564309 8.68735596,34.0349996 10.8347515,34.7693665 Z" id="Seller-base" fill="#0A1039"></path>
                    <path d="M14.030693,40.511568 C15.0036934,42.5843733 15.2085291,44.3559001 14.6198953,45.8158087 C14.355368,46.4718798 14.1111475,46.8937581 13.226183,48.3140924 C12.8943842,48.8466168 12.6961397,49.1750851 12.5041932,49.5186787 C11.8665544,50.6600833 11.5780824,51.5276596 11.6446652,52.2860913 C11.6766574,52.6505079 12.5319047,53.3926754 14.2104073,54.5125939 C12.1420423,53.9880058 11.0345354,53.3006098 10.9507462,52.3461828 C10.8691884,51.4171738 11.1958405,50.4347711 11.8951114,49.1830422 C12.0938211,48.827342 12.2966298,48.4913115 12.6338691,47.9500552 C13.4932007,46.5708607 13.730215,46.1614308 13.9732637,45.5586301 C14.3116614,44.7193484 14.3308044,43.0369944 14.030693,40.511568 Z" id="Seller-base" fill="#FF6868"></path>
                    <path d="M15.8211977,54.6413978 C16.3181822,54.8012043 17.3723145,54.6396418 17.3723145,54.5760466 C17.3723145,54.5124514 15.4401511,53.8131293 15.3328568,53.9889108 C15.2645057,54.1008913 15.6140774,54.5747978 15.8211977,54.6413978 Z" id="Seller-base" fill="#7D3532"></path>
                    <path d="M17.4178438,54.9992033 C17.5099402,54.8043664 18.1703487,54.7192004 18.4972271,54.0300987 C18.8241055,53.340997 17.8177933,51.7407364 17.994071,51.8957559 C18.1703487,52.0507755 18.9041058,53.6757669 18.8850051,54.0368213 C18.8340927,54.9992033 17.3257475,55.1940402 17.4178438,54.9992033 Z" id="Seller-base" fill="#FF6868"></path>
                </g>
                <path d="M695.435233,154.982235 C695.357295,154.900743 696.151705,154.284609 696.50248,153.833513 C696.747908,153.517895 696.675183,152.94829 696.382784,152.990574 C695.620723,153.100776 693.846638,151.860898 694.984606,150.462989 C695.649333,149.646422 696.454777,148.812148 697.174028,148.441535 C698.239871,147.892331 699.289564,150.014737 699.10096,150.052241 C698.912355,150.089745 698.126158,148.589251 697.463344,148.930784 C696.854943,149.244279 696.145692,150.128543 695.541576,150.87843 C694.782335,151.820873 696.090209,152.429849 696.623654,152.630058 C697.085428,152.803369 697.215527,153.220786 697.002941,153.689061 C696.844331,154.038442 695.567704,155.120745 695.435233,154.982235 Z" id="Seller-base" fill="#FF6868"></path>
                <path d="M700.818113,107.218813 C701.076123,107.016285 701.341479,106.826622 701.614127,106.651198 C708.317223,102.338361 718.515551,100.663284 725.190784,105.920048 C727.598242,107.815928 727.558646,111.911249 730.522989,114.116984 C743.086785,123.465569 723.819976,133.476936 725.190784,142.119058 C721.416241,139.649134 729.469757,130.423426 726.23644,132.885551 C722.876897,135.443795 720.114813,136.79886 717.706085,137.486611 C716.310721,145.79485 707.374185,165.459662 699.006799,170.561071 C698.725154,170.732784 698.416005,171.890025 698.83699,172.728567 C699.257975,173.567109 697.578113,171.29521 697.287044,171.399999 C697.000937,171.503001 696.876147,172.728567 696.876147,173.189307 C696.876147,173.650047 695.613722,171.787098 695.21043,171.787098 C695.017668,171.615301 694.298532,172.489428 694.11626,172.329955 C693.933895,172.170399 694.019693,171.023292 694.11626,170.828586 C696.876147,165.263896 697.931347,167.339306 697.425692,162.570807 C697.262527,162.570807 695.544552,162.785961 694.893662,164.141465 C694.074409,165.847593 694.308312,168.753432 694.290969,168.483768 C694.277888,168.280364 693.864734,165.565228 694.457296,163.878729 C695.121936,161.987085 696.820733,161.092608 697.219025,160.642794 C697.226144,160.170389 697.226144,159.323493 697.219025,159.053653 C700.610254,156.995871 702.938817,147.295418 698.83699,145.291943 C693.068041,142.474188 693.428433,151.88774 692.458816,151.88774 C691.548229,151.88774 691.512666,153.584081 690.631465,145.865789 C684.889856,147.597038 678.07035,145.059634 677.788885,138.400319 C678.346819,149.324412 693.83239,147.862353 693.409536,148.068691 C693.287232,148.128371 692.923115,148.854591 691.050134,148.854591 C684.757157,148.854591 677.788885,148.5018 675.801408,138.577773 C670.019041,141.37479 656.408051,143.216533 652.532763,143.216533 C643.253208,142.412866 638.920415,131.52999 640.123431,125.179882 C641.326447,118.829774 647.277644,115.509886 658.006829,114.321731 C668.736014,113.133576 671.965584,98.4478013 697.389586,106.083181 C698.59837,106.446205 699.74002,106.825248 700.818113,107.218813 Z" id="Seller-base" fill="#0A1039"></path>
                <path d="M656.554016,192.55913 C657.794591,204.29796 659.132261,211.734396 660.567025,214.868437 C662.001789,218.002478 665.108264,220.273655 669.886451,221.681967 C666.26951,224.254066 664.840473,227.18232 665.599338,230.466728 C666.358203,233.751136 673.397114,241.315404 686.716072,253.159533" id="Seller-base" stroke="#FFFFFF" stroke-linecap="round" stroke-linejoin="round"></path>
                <path d="M690.807816,238.507202 L686.199806,255.885277 C700.681669,237.666014 708.424266,227.503356 709.427596,225.397304 C710.430927,223.291251 709.220431,220.89999 705.796111,218.223521 C709.131428,217.598814 711.803252,215.232011 713.811583,211.123111 C715.819914,207.014211 716.78021,200.880083 716.69247,192.720726" id="Seller-base" stroke="#FFFFFF" stroke-linecap="round" stroke-linejoin="round"></path>
                <path d="M624.359781,241.855265 C624.359781,246.891735 624.359781,250.12905 624.359781,251.56721 C624.359781,253.72445 615.762179,235.387573 615.762179,233.409599 C617.180337,233.867191 620.046205,236.682413 624.359781,241.855265 Z" id="Seller-base" fill="#3C3F5D"></path>
            </g>
        </g>
    </g>
</svg>