<svg width="1137" height="546" viewBox="0 0 1137 546" fill="none" xmlns="http://www.w3.org/2000/svg">
<path d="M641.961 203.399C644.249 197.151 651.158 193.929 657.415 196.191C664.489 198.748 667.532 207.079 663.772 213.594L636.449 260.934C634.666 264.023 630.926 265.389 627.572 264.177C623.738 262.791 621.761 258.552 623.163 254.724L641.961 203.399Z" fill="#FF9179"/>
<path d="M641.961 203.399C644.249 197.151 651.158 193.929 657.415 196.191C664.489 198.748 667.532 207.079 663.772 213.594L636.449 260.934C634.666 264.023 630.926 265.389 627.572 264.177C623.738 262.791 621.761 258.552 623.163 254.724L641.961 203.399Z" fill="#FF9179"/>
<path d="M730.549 203.399C728.261 197.151 721.353 193.929 715.096 196.191C708.021 198.748 704.978 207.079 708.738 213.594L736.061 260.934C737.844 264.023 741.584 265.389 744.938 264.177C748.772 262.791 750.749 258.552 749.347 254.724L730.549 203.399Z" fill="#FF9179"/>
<path d="M649.831 194.416L679.128 185.016H696.198L723.376 194.416C723.376 194.416 726.814 227.754 723.376 236.509C714.428 259.299 716.775 266.003 723.376 278.07C714.039 288.691 699.587 280.69 686.661 281.218C672.779 281.784 660.387 290.077 649.831 278.07C654.342 264.888 658.306 258.988 649.831 236.509C648.408 232.736 647.931 225.269 648.401 214.108C648.637 208.482 649.831 194.416 649.831 194.416Z" fill="#FFB0B6"/>
<path d="M213.707 311C427.415 145.733 0.00012207 152.918 0.00012207 109.445C0.00012207 6.10352e-05 296.385 6.10352e-05 296.385 6.10352e-05C296.385 6.10352e-05 1059.32 19.3899 930.734 245.991C802.144 472.592 1200.05 298.08 1127.61 472.675C1055.16 647.271 0.00012207 476.267 213.707 311Z" fill="#FFE4E5"/>
<path d="M664.917 189.576V191.152C664.917 202.818 680.513 218.214 686.132 218.214C691.751 218.214 707.347 202.818 707.347 191.152V188.872L723.376 194.416C725.668 216.641 725.668 230.672 723.376 236.509C714.428 259.299 716.775 266.003 723.376 278.07C713.132 289.722 700.332 278.612 686.132 278.07C673.49 277.587 659.432 288.991 649.831 278.07C654.342 264.887 658.306 258.988 649.831 236.509C648.408 232.736 647.931 225.269 648.401 214.108C648.558 210.357 649.035 203.793 649.831 194.416L664.917 189.576Z" fill="white"/>
<path d="M615.92 264.023C597.899 254.347 574.186 201.851 574.186 201.851C572.015 198.614 572.759 194.329 575.889 192.041C579.019 189.753 579.461 190.925 582.068 193.842C582.068 193.842 595.022 221.958 609.152 229.62C623.281 237.282 638.063 255.274 632.639 266.432C632.519 266.678 622.74 267.685 615.92 264.023Z" fill="#FFB0B6"/>
<path d="M632.622 267.844C629.367 270.736 618.022 265.683 615.683 264.44C604.492 258.491 591.589 240.477 576.974 210.399C576.365 209.145 579.426 210.399 583.251 208.006C587.076 205.613 586.976 203.005 587.848 204.446C595.267 216.701 602.232 224.956 609.809 229.024C615.601 232.132 619.772 236.194 624.379 241.528L638.999 205.649C640.615 201.245 644.528 195.885 648.79 194.813C649.129 194.727 669.863 187.414 669.863 187.414C669.863 199.08 684.028 248.452 687.359 251.633C689.672 247.697 704.554 187.414 704.554 187.414L723.376 194.416C725.668 216.641 725.668 230.672 723.376 236.509C714.428 259.3 716.775 266.003 723.376 278.07C713.132 289.722 700.332 278.612 686.132 278.07C673.49 277.587 659.432 288.991 649.831 278.07C654.215 265.258 658.082 259.325 650.516 238.364C643.555 250.675 635.124 265.621 632.622 267.844Z" fill="#5A5D88"/>
<path d="M632.622 267.844C631.124 269.175 636.445 261.285 641.425 247.037C643.421 241.324 644.741 227.232 646.5 223.607C647.11 222.352 645.082 233.656 647.257 236.423C646.5 229.121 648.949 218.583 649.92 219.51C649.236 224.258 650.516 240 657.337 251.316C660.964 255.282 675.711 260.043 684.964 260.043C689.353 260.043 680.872 264.315 679.756 270.227C679.693 270.562 646.007 286.513 651.86 272.351C657.713 258.189 650.399 237.7 650.516 238.364C643.555 250.675 635.124 265.621 632.622 267.844Z" fill="#3C3F5D"/>
<path d="M737.88 246.941C737.592 246.961 737.305 246.992 737.02 247.033L664.983 263.389C661.186 263.932 658.363 266.916 658.619 270.726C658.875 274.536 662.046 277.482 665.879 277.471L735.284 271.343C745.354 272.078 756.964 271.313 750.228 257.629C750.091 257.352 744.708 246.445 737.88 246.941Z" fill="#FFB0B6"/>
<path d="M751.161 257.506C757.954 271.238 745.737 272.312 735.61 271.561L680.654 276.326C675.712 276.754 673.017 261.299 677.109 260.4L727.061 249.299C727.061 249.299 718.821 230.627 713.53 221.48C711.825 218.532 722.471 194.01 722.471 194.01C727.484 194.999 728.9 197.664 731.42 204.536C731.42 204.536 751.152 257.49 751.161 257.506Z" fill="#5A5D88"/>
<path d="M727.062 249.298C727.062 249.298 723.834 241.751 722.69 239.272C722.352 238.541 718.454 251.898 718.19 251.338C717.91 250.743 689.962 258.708 689.824 257.85C701.498 255.778 716.275 251.338 718.19 245.841C720.812 238.313 723.304 217.855 723.304 217.855C722.628 224.822 722.628 232.625 723.304 234.527C724.104 236.778 724.184 223.955 725.55 227.68L727.062 249.298Z" fill="#3C3F5D"/>
<path d="M675.11 162.187H696.703V194.817C696.703 194.817 692.651 200.928 685.907 200.928C679.162 200.928 675.11 194.817 675.11 194.817V162.187Z" fill="#FFB0B6"/>
<path d="M675.11 155.269H696.703L692.367 174.644C692.367 174.644 686.077 190.762 680.288 193.38C674.499 195.998 675.11 187.898 675.11 187.898V155.269Z" fill="#E9989E"/>
<path d="M670.262 182.172C678.617 182.172 706.028 165.021 706.028 149.803C706.028 134.584 692.587 111.079 677.227 111.079C661.868 111.079 652.607 127.614 652.607 142.833C652.607 145.731 655.717 148.095 656.066 152.094C656.378 155.677 655.643 162.774 656.066 164.012C657.39 167.893 667.211 182.172 670.262 182.172Z" fill="#FFB0B6"/>
<path d="M663.269 170.667C663.243 170.584 662.975 169.009 665.247 168.905C665.703 168.884 666.112 169.43 666.441 169.43C666.797 169.43 667.249 168.918 667.742 168.905C669.397 168.858 672.307 170.518 675.275 170.217C676.459 170.098 676.27 169.316 676.615 169.316C676.749 169.316 677.05 170.249 676.749 170.159C676.348 170.038 676.42 170.024 674.488 171.015C672.682 171.941 667.785 171.292 666.441 171.292C664.37 171.292 663.356 170.942 663.269 170.667Z" fill="#FF5932"/>
<path d="M664.935 173.48C668.339 174.596 670.368 174.073 673.563 172.564C672.764 173.777 669.1 175.609 667.492 175.495C665.883 175.381 665.022 173.755 664.935 173.48Z" fill="#FF6868"/>
<path d="M674.46 153.759C674.182 153.885 675.184 151.366 676.622 150.627C676.687 150.582 676.758 150.548 676.834 150.527C676.853 150.521 676.871 150.517 676.889 150.513C676.917 150.504 676.945 150.495 676.974 150.487C678.596 150.025 681.681 152.352 681.324 152.402C681.103 152.432 679.685 151.628 678.286 151.567C678.355 151.713 678.415 151.87 678.463 152.037C678.754 153.045 678.497 154.002 677.888 154.175C677.279 154.349 676.55 153.673 676.259 152.665C676.219 152.528 676.19 152.391 676.17 152.257C675.355 152.85 674.736 153.634 674.46 153.759Z" fill="#0A1039"/>
<path d="M662.183 152.257C662.997 152.85 663.616 153.634 663.893 153.759C664.17 153.885 663.169 151.366 661.73 150.627C661.665 150.582 661.595 150.548 661.518 150.527C661.5 150.521 661.482 150.517 661.463 150.513C661.435 150.504 661.407 150.495 661.379 150.487C659.757 150.025 656.672 152.352 657.029 152.402C657.25 152.432 658.668 151.628 660.067 151.567C659.997 151.713 659.937 151.87 659.889 152.037C659.598 153.045 659.856 154.002 660.465 154.175C661.073 154.349 661.803 153.673 662.094 152.665C662.133 152.528 662.163 152.391 662.183 152.257Z" fill="#0A1039"/>
<path d="M675.193 145.071C673.046 145.805 672.146 149.316 674.101 148.247C677.842 146.202 682.627 146.907 682.544 146.655C682.349 146.058 677.341 144.337 675.193 145.071Z" fill="#0A1039"/>
<path d="M662.959 145.763C665.106 146.497 666.006 150.008 664.051 148.939C660.311 146.894 655.526 147.599 655.608 147.347C655.803 146.75 660.812 145.028 662.959 145.763Z" fill="#0A1039"/>
<path d="M666.155 151.505C667.128 153.578 667.333 155.349 666.744 156.809C666.479 157.465 666.235 157.887 665.35 159.308C665.018 159.84 664.82 160.169 664.628 160.512C663.991 161.654 663.702 162.521 663.769 163.28C663.817 163.826 666.334 165.506 666.334 165.506C664.266 164.981 663.159 164.294 663.075 163.34C662.993 162.411 663.32 161.428 664.019 160.176C664.218 159.821 664.421 159.485 664.758 158.943C665.617 157.564 665.854 157.155 666.097 156.552C666.605 155.293 666.155 151.505 666.155 151.505Z" fill="#FF6868"/>
<path d="M667.945 165.635C668.442 165.795 669.496 165.633 669.496 165.569C669.496 165.506 667.564 164.807 667.457 164.982C667.389 165.094 667.738 165.568 667.945 165.635Z" fill="#7D3532"/>
<path d="M669.542 165.993C669.634 165.798 670.295 165.713 670.622 165.024C670.948 164.334 669.942 162.734 670.118 162.889C670.295 163.044 671.028 164.669 671.009 165.03C670.958 165.993 669.45 166.187 669.542 165.993Z" fill="#FF6868"/>
<path d="M695.435 154.982C695.357 154.901 696.152 154.285 696.502 153.834C696.748 153.518 696.675 152.948 696.383 152.991C695.621 153.101 693.847 151.861 694.985 150.463C695.649 149.646 696.455 148.812 697.174 148.442C698.24 147.892 699.29 150.015 699.101 150.052C698.912 150.09 698.126 148.589 697.463 148.931C696.855 149.244 696.146 150.129 695.542 150.878C694.782 151.821 696.09 152.43 696.624 152.63C697.085 152.803 697.216 153.221 697.003 153.689C696.844 154.038 695.568 155.121 695.435 154.982Z" fill="#FF6868"/>
<path fill-rule="evenodd" clip-rule="evenodd" d="M717.706 137.487C720.115 136.799 722.877 135.444 726.237 132.886C727.466 131.949 727.063 132.703 726.3 134.133C725.055 136.463 722.852 140.588 725.191 142.119C724.663 138.789 727.199 135.256 729.797 131.636C733.942 125.86 738.246 119.863 730.523 114.117C728.954 112.949 728.226 111.252 727.532 109.631C726.915 108.191 726.324 106.812 725.191 105.92C718.516 100.663 708.317 102.338 701.614 106.651C701.342 106.827 701.076 107.016 700.818 107.219C699.74 106.825 698.599 106.446 697.39 106.083C680.399 100.981 673.321 105.847 667.292 109.991C664.3 112.048 661.566 113.928 658.007 114.322C647.278 115.51 641.327 118.83 640.124 125.18C638.921 131.53 643.253 142.413 652.533 143.217C656.408 143.217 670.019 141.375 675.802 138.578C677.783 148.471 684.714 148.852 690.992 148.855C691.432 152.223 691.615 152.153 692.057 151.982C692.171 151.938 692.302 151.888 692.459 151.888C692.731 151.888 692.898 151.149 693.125 150.148C693.707 147.574 694.684 143.263 698.837 145.292C702.939 147.295 700.61 156.996 697.219 159.054C697.226 159.324 697.226 160.17 697.219 160.643C697.123 160.751 696.952 160.885 696.738 161.053C696.063 161.581 694.962 162.443 694.457 163.879C693.927 165.388 694.202 167.721 694.275 168.341C694.282 168.398 694.287 168.44 694.29 168.466C694.292 168.505 694.293 168.513 694.291 168.484C694.291 168.479 694.29 168.473 694.29 168.466C694.27 168.142 694.163 165.664 694.894 164.141C695.545 162.786 697.263 162.571 697.426 162.571C697.736 165.5 697.458 165.847 696.557 166.968C695.992 167.673 695.181 168.682 694.116 170.829C694.02 171.023 693.934 172.17 694.116 172.33C694.206 172.408 694.426 172.237 694.648 172.063C694.879 171.883 695.113 171.7 695.211 171.787C695.411 171.787 695.824 172.247 696.188 172.654C696.557 173.065 696.876 173.421 696.876 173.189C696.876 172.729 697.001 171.503 697.287 171.4C697.438 171.346 697.963 171.931 698.375 172.39C698.756 172.816 699.04 173.132 698.837 172.729C698.416 171.89 698.725 170.733 699.007 170.561C707.374 165.46 716.311 145.795 717.706 137.487ZM690.882 147.99C690.807 147.376 690.724 146.672 690.632 145.866C685.261 147.485 678.947 145.37 677.923 139.639C679.091 146.522 686.795 147.762 690.882 147.99Z" fill="#0A1039"/>
<path d="M656.554 192.559C656.554 192.559 658.415 210.167 660.567 214.868C662.719 219.569 669.887 221.682 669.887 221.682C669.887 221.682 664.461 225.54 665.6 230.467C666.738 235.393 686.716 253.159 686.716 253.159" stroke="white" stroke-linecap="round" stroke-linejoin="round"/>
<path d="M690.808 238.507L686.2 255.885C686.2 255.885 707.923 228.556 709.427 225.397C710.932 222.238 705.796 218.223 705.796 218.223C705.796 218.223 710.799 217.286 713.811 211.123C716.824 204.96 716.692 192.721 716.692 192.721" stroke="white" stroke-linecap="round" stroke-linejoin="round"/>
<path d="M624.36 241.855C624.36 241.855 624.36 249.41 624.36 251.567C624.36 253.724 615.762 235.388 615.762 233.41C617.889 234.096 624.36 241.855 624.36 241.855Z" fill="#3C3F5D"/>
</svg>
