<?xml version="1.0" encoding="UTF-8"?>
<svg width="1245px" height="546px" viewBox="0 0 1245 546" version="1.1" xmlns="http://www.w3.org/2000/svg" xmlns:xlink="http://www.w3.org/1999/xlink">
    <!-- Generator: Sketch 52.3 (67297) - http://www.bohemiancoding.com/sketch -->
    <title>Seller</title>
    <desc>Created with Sketch.</desc>
    <g id="Page-1" stroke="none" stroke-width="1" fill="none" fill-rule="evenodd">
        <g id="3" transform="translate(-100.000000, -334.000000)" fill-rule="nonzero">
            <g id="Seller" transform="translate(100.000000, 334.000000)">
                <path d="M970.791608,234.989706 C757.084313,400.257017 1184.4989,393.071825 1184.4989,436.54508 C1184.4989,509.508164 1085.70405,545.989706 888.114332,545.989706 C379.488451,533.063124 168.038836,451.066187 253.765487,299.998896 C382.355462,73.3979594 -15.5529655,247.909621 56.8906159,73.3142598 C129.334197,-101.281101 1184.4989,69.7223956 970.791608,234.989706 Z" id="Background-base" fill="#FFE4E5"></path>
                <path d="M1120,331.715329 C1189.03559,331.715329 1245,339.645214 1245,298.5 C1245,257.354786 1189.03559,224 1120,224 C1050.96441,224 995,257.354786 995,298.5 C995,339.645214 1050.96441,331.715329 1120,331.715329 Z" id="Background-base" fill="#FFE4E5" transform="translate(1120.000000, 278.164570) scale(-1, 1) translate(-1120.000000, -278.164570) "></path>
                <path d="M259.063573,219.633886 C259.063573,178.488673 139.23057,195.128385 41.9985248,238.361556 C-55.2335205,281.594727 40.6165321,335.503769 86.7363719,342.931032 C132.856212,350.358296 259.063573,260.7791 259.063573,219.633886 Z" id="Background-base" fill="#FFE4E5" transform="translate(129.531786, 269.683032) scale(-1, 1) translate(-129.531786, -269.683032) "></path>
                <path d="M697.938972,214.977084 L697.938972,214.977084 C704.057738,214.963668 709.028854,219.913031 709.042271,226.031797 C709.043702,226.684361 708.987475,227.335775 708.874247,227.978443 L699.288685,282.384638 C698.608285,286.246485 695.257257,289.064992 691.335939,289.07359 L691.335939,289.07359 C687.608872,289.081762 684.580862,286.067003 684.57269,282.339936 C684.572669,282.330483 684.572668,282.32103 684.572687,282.311577 L684.681352,228.237133 C684.696054,220.920857 690.622698,214.993127 697.938972,214.977084 Z" id="Seller-base" fill="#FF9179" transform="translate(696.807486, 252.025332) rotate(20.000000) translate(-696.807486, -252.025332) "></path>
                <path d="M697.938972,214.977084 L697.938972,214.977084 C704.057738,214.963668 709.028854,219.913031 709.042271,226.031797 C709.043702,226.684361 708.987475,227.335775 708.874247,227.978443 L699.288685,282.384638 C698.608285,286.246485 695.257257,289.064992 691.335939,289.07359 L691.335939,289.07359 C687.608872,289.081762 684.580862,286.067003 684.57269,282.339936 C684.572669,282.330483 684.572668,282.32103 684.572687,282.311577 L684.681352,228.237133 C684.696054,220.920857 690.622698,214.993127 697.938972,214.977084 Z" id="Seller-base" fill="#FF9179" transform="translate(696.807486, 252.025332) rotate(20.000000) translate(-696.807486, -252.025332) "></path>
                <path d="M780.834346,214.977084 L780.834346,214.977084 C786.953112,214.963668 791.924228,219.913031 791.937644,226.031797 C791.939075,226.684361 791.882849,227.335775 791.76962,227.978443 L782.184058,282.384638 C781.503658,286.246485 778.15263,289.064992 774.231312,289.07359 L774.231312,289.07359 C770.504246,289.081762 767.476236,286.067003 767.468063,282.339936 C767.468043,282.330483 767.468042,282.32103 767.468061,282.311577 L767.576725,228.237133 C767.591428,220.920857 773.518072,214.993127 780.834346,214.977084 Z" id="Seller-base" fill="#FF9179" transform="translate(779.702859, 252.025332) scale(-1, 1) rotate(20.000000) translate(-779.702859, -252.025332) "></path>
                <path d="M701.830614,215.415756 L731.127563,206.016393 L748.197833,206.016393 L775.376283,215.415756 C777.667835,237.641189 777.667835,251.672167 775.376283,257.50869 C766.428087,280.299503 768.775038,287.003112 775.376283,299.070083 C766.039015,309.690733 751.587067,301.689799 738.66047,302.217655 C724.778792,302.784511 712.386606,311.076968 701.830614,299.070083 C706.341637,285.88755 710.305516,279.987643 701.830614,257.50869 C700.40811,253.735619 699.931398,246.268598 700.400479,235.107627 C700.558101,231.357288 701.034813,224.793331 701.830614,215.415756 Z" id="Seller-base" fill="#FFB0B6"></path>
                <path d="M716.916905,210.57561 L716.916905,212.152303 C716.916905,223.817795 732.512821,239.213682 738.132002,239.213682 C743.751182,239.213682 759.347098,223.817795 759.347098,212.152303 L759.347098,209.872242 L775.376283,215.415756 C777.667835,237.641189 777.667835,251.672167 775.376283,257.50869 C766.428087,280.299503 768.775038,287.003112 775.376283,299.070083 C765.132071,310.722335 752.331753,299.612188 738.132002,299.070083 C725.490262,298.587459 711.431828,309.990959 701.830614,299.070083 C706.341637,285.88755 710.305516,279.987643 701.830614,257.50869 C700.40811,253.735619 699.931398,246.268598 700.400479,235.107627 C700.558101,231.357288 701.034813,224.793331 701.830614,215.415756 L716.916905,210.57561 Z" id="Seller-base" fill="#FFFFFF"></path>
                <path d="M632.52049,222.231958 C645.980324,224.419897 665.880905,239.48599 692.222231,267.430237 C695.328427,269.783836 696.019894,274.077076 693.80536,277.259701 C691.590826,280.442326 690.791993,279.478052 687.376711,277.568656 C673.108835,262.657456 660.690156,254.32039 650.120674,252.557457 C634.266452,249.913058 614.432425,237.713484 615.92839,225.397724 C615.961354,225.126344 624.879741,220.98993 632.52049,222.231958 Z" id="Seller-base" fill="#FFB0B6" transform="translate(655.474107, 250.665718) rotate(-161.000000) translate(-655.474107, -250.665718) "></path>
                <path d="M684.621811,288.844239 C681.366936,291.736098 670.022353,286.682963 667.683424,285.439715 C656.492123,279.491027 643.589021,261.47739 628.974119,231.398803 C628.364967,230.145119 631.426393,231.398803 635.25136,229.006049 C639.076327,226.613295 638.975623,224.00528 639.847634,225.445605 C647.267452,237.701111 654.231641,245.956345 661.809514,250.023712 C667.600894,253.132192 671.772494,257.193721 676.378828,262.528053 L690.999368,226.648661 C692.615509,222.244963 696.528445,216.884687 700.789638,215.812591 C701.01578,215.755694 708.040315,213.289627 721.863241,208.414389 C721.863241,220.079881 736.028407,269.451812 739.359457,272.633396 C740.901029,270.00887 746.63258,248.602534 756.554107,208.414389 L775.376283,215.415756 C777.667835,237.641189 777.667835,251.672167 775.376283,257.50869 C766.428087,280.299503 768.775038,287.003112 775.376283,299.070083 C765.132071,310.722335 752.331753,299.612188 738.132002,299.070083 C725.490262,298.587459 711.431828,309.990959 701.830614,299.070083 C706.214919,286.257857 710.082387,280.324855 702.51563,259.364323 C695.555274,271.675312 687.123813,286.621285 684.621811,288.844239 Z" id="Seller-base" fill="#5A5D88"></path>
                <path d="M684.621811,288.844239 C683.123923,290.175068 688.445114,282.285317 693.424462,268.037452 C695.42127,262.323799 696.741312,248.231512 698.500246,244.607473 C699.10978,243.351613 697.081806,254.656064 699.256631,257.423417 C698.500246,250.120687 700.949242,239.583264 701.91958,240.510063 C701.235807,245.257944 702.51563,261.000408 709.337151,272.316079 C712.963467,276.281992 727.710706,281.042951 736.964331,281.042951 C741.353245,281.042951 732.871889,285.314597 731.755908,291.226738 C731.692688,291.561659 698.006813,307.513298 703.859823,293.35096 C709.712834,279.188622 702.399294,258.700446 702.51563,259.364323 C695.555274,271.675312 687.123813,286.621285 684.621811,288.844239 Z" id="Seller-base" fill="#3C3F5D"></path>
                <path d="M740.936575,254.826177 C741.175398,254.988192 741.408559,255.158493 741.635631,255.336768 L795.842994,305.51971 C798.860137,307.888492 799.812522,311.884333 797.685827,315.055667 C795.559132,318.227001 791.339997,319.192615 788.026027,317.266461 L730.984312,277.257352 C721.895667,272.858763 712.223117,266.391123 724.899,257.909331 C725.155581,257.737645 735.271613,250.983149 740.936575,254.826177 Z" id="Seller-base" fill="#FFB0B6" transform="translate(758.825568, 285.950628) scale(-1, 1) rotate(-30.000000) translate(-758.825568, -285.950628) "></path>
                <path d="M803.1606,278.506284 C809.953808,292.238392 797.736635,293.312043 787.60955,292.560996 L732.653622,297.325684 C727.712309,297.754097 725.01651,282.298646 729.109194,281.400309 L779.061354,270.29847 C773.568021,257.850956 769.057625,248.578105 765.530167,242.479918 C764.393266,240.51447 767.373509,231.357776 774.470897,215.009836 C779.483785,215.999039 780.899985,218.663484 783.41955,225.5357 C796.574764,260.838334 803.155114,278.495196 803.1606,278.506284 Z" id="Seller-base" fill="#5A5D88"></path>
                <path d="M779.061354,270.29847 C776.909823,265.266732 775.452553,261.924538 774.689544,260.271889 C774.352125,259.541052 770.454052,272.898027 770.190198,272.338216 C769.909642,271.742971 741.961565,279.708363 741.824018,278.850132 C753.498284,276.777514 768.275173,272.338216 770.190198,266.840649 C771.938243,261.822439 773.642686,252.493927 775.303527,238.855113 C774.627326,245.821521 774.627326,253.625008 775.303527,255.526549 C776.104277,257.778329 776.183689,244.954607 777.549705,248.680474 L779.061354,270.29847 Z" id="Seller-base" fill="#3C3F5D"></path>
                <path d="M727.110345,183.186885 L748.703448,183.186885 L748.703448,215.816501 C746.002121,219.890746 742.403271,221.927869 737.906897,221.927869 C733.410522,221.927869 729.811672,219.890746 727.110345,215.816501 L727.110345,183.186885 Z" id="Seller-base" fill="#FFB0B6"></path>
                <path d="M727.110345,176.268852 L748.703448,176.268852 L744.367337,195.644302 C740.174172,206.389644 736.147808,212.634969 732.288247,214.380276 C728.428686,216.125584 726.702718,214.298315 727.110345,208.898469 L727.110345,176.268852 Z" id="Seller-base" fill="#E9989E"></path>
                <g id="Path-9-Copy" transform="translate(704.124138, 131.993443)">
                    <path d="M18.1377277,71.1781891 C26.4930181,71.1781891 53.9040045,54.0277159 53.9040045,38.8090488 C53.9040045,23.5903817 40.4629549,0.0855044773 25.1032449,0.0855044773 C9.74353498,0.0855044773 0.483285565,16.6210086 0.483285565,31.8396758 C0.483285565,34.7375758 3.59292544,37.10199 3.94136705,41.1003138 C4.25360772,44.6832363 3.51912237,51.7810161 3.94136705,53.0183084 C5.26573454,56.899067 15.0866899,71.1781891 18.1377277,71.1781891 Z" id="Seller-base" fill="#FFB0B6"></path>
                    <path d="M11.1449773,59.6738397 C11.1185881,59.5903716 10.8510769,58.0152767 13.1228242,57.9111018 C13.5789227,57.8901866 13.9885437,58.4366757 14.3171622,58.4366757 C14.6730228,58.4366757 15.1251747,57.9248765 15.6184086,57.9111018 C17.273335,57.8648841 20.1833402,59.524171 23.151365,59.2239324 C24.3346505,59.104234 24.1459713,58.3229285 24.4914896,58.3229285 C24.6249474,58.3229285 24.9264555,59.2555075 24.6249474,59.1651576 C24.2237114,59.0449233 24.2956556,59.030126 22.3641519,60.021141 C20.5578862,60.9478989 15.661093,60.2985188 14.3171622,60.2985188 C12.2461297,60.2985188 11.2319371,59.9488907 11.1449773,59.6738397 Z" id="Seller-base" fill="#FF5932"></path>
                    <path d="M12.8106372,62.486148 C16.2149333,63.6029255 18.2445376,63.0798475 21.4395026,61.5704918 C20.6399941,62.7837551 16.9762804,64.6151439 15.3677085,64.501403 C13.7591367,64.3876621 12.897597,62.761199 12.8106372,62.486148 Z" id="Seller-base" fill="#FF6868"></path>
                    <path d="M22.3360517,42.7653611 C22.0581705,42.891051 23.0600029,40.372913 24.498372,39.6338532 C24.5632806,39.5888956 24.6341009,39.5548223 24.7104434,39.5330807 C24.7286128,39.5279062 24.7468897,39.5234887 24.7652591,39.5198144 C24.7932477,39.5102896 24.8213727,39.5014891 24.8496282,39.4934421 C26.4717018,39.0314908 29.556706,41.3582107 29.1999681,41.4080721 C28.9789978,41.4389572 27.5607377,40.6347907 26.1615913,40.573247 C26.231154,40.7194182 26.291255,40.8769957 26.3393659,41.0436348 C26.6302775,42.0512479 26.3726449,43.0086133 25.7639274,43.1819704 C25.1552099,43.3553274 24.4259164,42.6790293 24.1350048,41.6714162 C24.0953477,41.534058 24.0658842,41.3976336 24.0461143,41.2640018 C23.2313872,41.8565004 22.612568,42.6402885 22.3360517,42.7653611 Z" id="Seller-base" fill="#0A1039"></path>
                    <path d="M6.6323212,41.2640018 C5.81759408,41.8565004 5.19877495,42.6402885 4.92225863,42.7653611 C4.64437743,42.891051 5.64620982,40.372913 7.08457891,39.6338532 C7.14948748,39.5888956 7.22030779,39.5548223 7.29665031,39.5330807 C7.31481972,39.5279062 7.33309656,39.5234887 7.35146596,39.5198144 C7.37945463,39.5102896 7.40757955,39.5014891 7.43583514,39.4934421 C9.05790872,39.0314908 12.1429129,41.3582107 11.786175,41.4080721 C11.5652047,41.4389572 10.1469446,40.6347907 8.74779821,40.573247 C8.81736088,40.7194182 8.87746186,40.8769957 8.92557284,41.0436348 C9.2164844,42.0512479 8.95885177,43.0086133 8.35013427,43.1819704 C7.74141676,43.3553274 7.0121233,42.6790293 6.72121174,41.6714162 C6.68155457,41.534058 6.65209113,41.3976336 6.6323212,41.2640018 Z" id="Seller-base" fill="#0A1039" transform="translate(8.345246, 41.320931) scale(-1, 1) translate(-8.345246, -41.320931) "></path>
                    <path d="M28.2485446,34.0775633 C30.3959401,34.8119303 31.2958436,38.3225958 29.3410109,37.2537853 C25.6003514,35.2085689 20.8152095,35.9134419 20.8976013,35.6615946 C21.092899,35.0646276 26.1011491,33.3431963 28.2485446,34.0775633 Z" id="Seller-base" fill="#0A1039" transform="translate(25.658847, 35.676482) scale(-1, 1) translate(-25.658847, -35.676482) "></path>
                    <path d="M10.8347515,34.7693665 C12.982147,35.5037335 13.8820505,39.0143991 11.9272178,37.9455886 C8.18655832,35.9003722 3.4014164,36.6052451 3.48380821,36.3533979 C3.67910589,35.7564309 8.68735596,34.0349996 10.8347515,34.7693665 Z" id="Seller-base" fill="#0A1039"></path>
                    <path d="M14.030693,40.511568 C15.0036934,42.5843733 15.2085291,44.3559001 14.6198953,45.8158087 C14.355368,46.4718798 14.1111475,46.8937581 13.226183,48.3140924 C12.8943842,48.8466168 12.6961397,49.1750851 12.5041932,49.5186787 C11.8665544,50.6600833 11.5780824,51.5276596 11.6446652,52.2860913 C11.6766574,52.6505079 12.5319047,53.3926754 14.2104073,54.5125939 C12.1420423,53.9880058 11.0345354,53.3006098 10.9507462,52.3461828 C10.8691884,51.4171738 11.1958405,50.4347711 11.8951114,49.1830422 C12.0938211,48.827342 12.2966298,48.4913115 12.6338691,47.9500552 C13.4932007,46.5708607 13.730215,46.1614308 13.9732637,45.5586301 C14.3116614,44.7193484 14.3308044,43.0369944 14.030693,40.511568 Z" id="Seller-base" fill="#FF6868"></path>
                    <path d="M15.8211977,54.6413978 C16.3181822,54.8012043 17.3723145,54.6396418 17.3723145,54.5760466 C17.3723145,54.5124514 15.4401511,53.8131293 15.3328568,53.9889108 C15.2645057,54.1008913 15.6140774,54.5747978 15.8211977,54.6413978 Z" id="Seller-base" fill="#7D3532"></path>
                    <path d="M17.4178438,54.9992033 C17.5099402,54.8043664 18.1703487,54.7192004 18.4972271,54.0300987 C18.8241055,53.340997 17.8177933,51.7407364 17.994071,51.8957559 C18.1703487,52.0507755 18.9041058,53.6757669 18.8850051,54.0368213 C18.8340927,54.9992033 17.3257475,55.1940402 17.4178438,54.9992033 Z" id="Seller-base" fill="#FF6868"></path>
                </g>
                <path d="M747.435233,175.982235 C747.357295,175.900743 748.151705,175.284609 748.50248,174.833513 C748.747908,174.517895 748.675183,173.94829 748.382784,173.990574 C747.620723,174.100776 745.846638,172.860898 746.984606,171.462989 C747.649333,170.646422 748.454777,169.812148 749.174028,169.441535 C750.239871,168.892331 751.289564,171.014737 751.10096,171.052241 C750.912355,171.089745 750.126158,169.589251 749.463344,169.930784 C748.854943,170.244279 748.145692,171.128543 747.541576,171.87843 C746.782335,172.820873 748.090209,173.429849 748.623654,173.630058 C749.085428,173.803369 749.215527,174.220786 749.002941,174.689061 C748.844331,175.038442 747.567704,176.120745 747.435233,175.982235 Z" id="Seller-base" fill="#FF6868"></path>
                <path d="M752.818113,128.218813 C753.076123,128.016285 753.341479,127.826622 753.614127,127.651198 C760.317223,123.338361 770.515551,121.663284 777.190784,126.920048 C779.598242,128.815928 779.558646,132.911249 782.522989,135.116984 C795.086785,144.465569 775.819976,154.476936 777.190784,163.119058 C773.416241,160.649134 781.469757,151.423426 778.23644,153.885551 C774.876897,156.443795 772.114813,157.79886 769.706085,158.486611 C768.310721,166.79485 759.374185,186.459662 751.006799,191.561071 C750.725154,191.732784 750.416005,192.890025 750.83699,193.728567 C751.257975,194.567109 749.578113,192.29521 749.287044,192.399999 C749.000937,192.503001 748.876147,193.728567 748.876147,194.189307 C748.876147,194.650047 747.613722,192.787098 747.21043,192.787098 C747.017668,192.615301 746.298532,193.489428 746.11626,193.329955 C745.933895,193.170399 746.019693,192.023292 746.11626,191.828586 C748.876147,186.263896 749.931347,188.339306 749.425692,183.570807 C749.262527,183.570807 747.544552,183.785961 746.893662,185.141465 C746.074409,186.847593 746.308312,189.753432 746.290969,189.483768 C746.277888,189.280364 745.864734,186.565228 746.457296,184.878729 C747.121936,182.987085 748.820733,182.092608 749.219025,181.642794 C749.226144,181.170389 749.226144,180.323493 749.219025,180.053653 C752.610254,177.995871 754.938817,168.295418 750.83699,166.291943 C745.068041,163.474188 745.428433,172.88774 744.458816,172.88774 C743.548229,172.88774 743.512666,174.584081 742.631465,166.865789 C736.889856,168.597038 730.07035,166.059634 729.788885,159.400319 C730.346819,170.324412 745.83239,168.862353 745.409536,169.068691 C745.287232,169.128371 744.923115,169.854591 743.050134,169.854591 C736.757157,169.854591 729.788885,169.5018 727.801408,159.577773 C722.019041,162.37479 708.408051,164.216533 704.532763,164.216533 C695.253208,163.412866 690.920415,152.52999 692.123431,146.179882 C693.326447,139.829774 699.277644,136.509886 710.006829,135.321731 C720.736014,134.133576 723.965584,119.447801 749.389586,127.083181 C750.59837,127.446205 751.74002,127.825248 752.818113,128.218813 Z" id="Seller-base" fill="#0A1039"></path>
                <path d="M708.554016,213.55913 C709.794591,225.29796 711.132261,232.734396 712.567025,235.868437 C714.001789,239.002478 717.108264,241.273655 721.886451,242.681967 C718.26951,245.254066 716.840473,248.18232 717.599338,251.466728 C718.358203,254.751136 725.397114,262.315404 738.716072,274.159533" id="Seller-base" stroke="#FFFFFF" stroke-linecap="round" stroke-linejoin="round"></path>
                <path d="M742.807816,259.507202 L738.199806,276.885277 C752.681669,258.666014 760.424266,248.503356 761.427596,246.397304 C762.430927,244.291251 761.220431,241.89999 757.796111,239.223521 C761.131428,238.598814 763.803252,236.232011 765.811583,232.123111 C767.819914,228.014211 768.78021,221.880083 768.69247,213.720726" id="Seller-base" stroke="#FFFFFF" stroke-linecap="round" stroke-linejoin="round"></path>
                <path d="M676.359781,262.855265 C676.359781,267.891735 676.359781,271.12905 676.359781,272.56721 C676.359781,274.72445 667.762179,256.387573 667.762179,254.409599 C669.180337,254.867191 672.046205,257.682413 676.359781,262.855265 Z" id="Seller-base" fill="#3C3F5D"></path>
            </g>
        </g>
    </g>
</svg>