<?xml version="1.0" encoding="UTF-8"?>
<svg width="1159px" height="578px" viewBox="0 0 1159 578" version="1.1" xmlns="http://www.w3.org/2000/svg" xmlns:xlink="http://www.w3.org/1999/xlink">
    <!-- Generator: Sketch 52.3 (67297) - http://www.bohemiancoding.com/sketch -->
    <title>Seller</title>
    <desc>Created with Sketch.</desc>
    <g id="Page-1" stroke="none" stroke-width="1" fill="none" fill-rule="evenodd">
        <g id="6" transform="translate(-131.000000, -333.000000)" fill-rule="nonzero">
            <g id="Seller" transform="translate(131.000000, 333.000000)">
                <path d="M1103.5,32.2522165 C1199.51343,46.0435765 1146.12461,112.638301 1116.35996,151.521315 C1082.03123,196.366621 1027.81189,234.189839 1027.81189,258.933101 C1027.81189,371.488485 1077.97389,424.334335 1077.97389,467.807591 C1077.97389,540.770675 979.179033,577.252216 781.589319,577.252216 C645.608627,577.252216 428.714313,577.252216 130.906377,577.252216 C45.9892273,577.252216 22.6563602,517.491851 22.6563602,467.807591 C22.6563602,415.428252 148.761152,392.513471 147.240473,331.261406 C145.719795,270.009341 -142.041379,19.4579535 91.0940787,4.25221646 C324.229536,-10.9535206 1007.48657,18.4608564 1103.5,32.2522165 Z" id="Background-base" fill="#FFE4E5" transform="translate(579.121502, 288.626108) scale(1, -1) translate(-579.121502, -288.626108) "></path>
                <path d="M666.938972,215.977084 L666.938972,215.977084 C673.057738,215.963668 678.028854,220.913031 678.042271,227.031797 C678.043702,227.684361 677.987475,228.335775 677.874247,228.978443 L668.288685,283.384638 C667.608285,287.246485 664.257257,290.064992 660.335939,290.07359 L660.335939,290.07359 C656.608872,290.081762 653.580862,287.067003 653.57269,283.339936 C653.572669,283.330483 653.572668,283.32103 653.572687,283.311577 L653.681352,229.237133 C653.696054,221.920857 659.622698,215.993127 666.938972,215.977084 Z" id="Seller-base" fill="#FF9179" transform="translate(665.807486, 253.025332) rotate(20.000000) translate(-665.807486, -253.025332) "></path>
                <path d="M666.938972,215.977084 L666.938972,215.977084 C673.057738,215.963668 678.028854,220.913031 678.042271,227.031797 C678.043702,227.684361 677.987475,228.335775 677.874247,228.978443 L668.288685,283.384638 C667.608285,287.246485 664.257257,290.064992 660.335939,290.07359 L660.335939,290.07359 C656.608872,290.081762 653.580862,287.067003 653.57269,283.339936 C653.572669,283.330483 653.572668,283.32103 653.572687,283.311577 L653.681352,229.237133 C653.696054,221.920857 659.622698,215.993127 666.938972,215.977084 Z" id="Seller-base" fill="#FF9179" transform="translate(665.807486, 253.025332) rotate(20.000000) translate(-665.807486, -253.025332) "></path>
                <path d="M749.834346,215.977084 L749.834346,215.977084 C755.953112,215.963668 760.924228,220.913031 760.937644,227.031797 C760.939075,227.684361 760.882849,228.335775 760.76962,228.978443 L751.184058,283.384638 C750.503658,287.246485 747.15263,290.064992 743.231312,290.07359 L743.231312,290.07359 C739.504246,290.081762 736.476236,287.067003 736.468063,283.339936 C736.468043,283.330483 736.468042,283.32103 736.468061,283.311577 L736.576725,229.237133 C736.591428,221.920857 742.518072,215.993127 749.834346,215.977084 Z" id="Seller-base" fill="#FF9179" transform="translate(748.702859, 253.025332) scale(-1, 1) rotate(20.000000) translate(-748.702859, -253.025332) "></path>
                <path d="M670.830614,216.415756 L700.127563,207.016393 L717.197833,207.016393 L744.376283,216.415756 C746.667835,238.641189 746.667835,252.672167 744.376283,258.50869 C735.428087,281.299503 737.775038,288.003112 744.376283,300.070083 C735.039015,310.690733 720.587067,302.689799 707.66047,303.217655 C693.778792,303.784511 681.386606,312.076968 670.830614,300.070083 C675.341637,286.88755 679.305516,280.987643 670.830614,258.50869 C669.40811,254.735619 668.931398,247.268598 669.400479,236.107627 C669.558101,232.357288 670.034813,225.793331 670.830614,216.415756 Z" id="Seller-base" fill="#FFB0B6"></path>
                <path d="M685.916905,211.57561 L685.916905,213.152303 C685.916905,224.817795 701.512821,240.213682 707.132002,240.213682 C712.751182,240.213682 728.347098,224.817795 728.347098,213.152303 L728.347098,210.872242 L744.376283,216.415756 C746.667835,238.641189 746.667835,252.672167 744.376283,258.50869 C735.428087,281.299503 737.775038,288.003112 744.376283,300.070083 C734.132071,311.722335 721.331753,300.612188 707.132002,300.070083 C694.490262,299.587459 680.431828,310.990959 670.830614,300.070083 C675.341637,286.88755 679.305516,280.987643 670.830614,258.50869 C669.40811,254.735619 668.931398,247.268598 669.400479,236.107627 C669.558101,232.357288 670.034813,225.793331 670.830614,216.415756 L685.916905,211.57561 Z" id="Seller-base" fill="#FFFFFF"></path>
                <path d="M601.52049,223.231958 C614.980324,225.419897 634.880905,240.48599 661.222231,268.430237 C664.328427,270.783836 665.019894,275.077076 662.80536,278.259701 C660.590826,281.442326 659.791993,280.478052 656.376711,278.568656 C642.108835,263.657456 629.690156,255.32039 619.120674,253.557457 C603.266452,250.913058 583.432425,238.713484 584.92839,226.397724 C584.961354,226.126344 593.879741,221.98993 601.52049,223.231958 Z" id="Seller-base" fill="#FFB0B6" transform="translate(624.474107, 251.665718) rotate(-161.000000) translate(-624.474107, -251.665718) "></path>
                <path d="M653.621811,289.844239 C650.366936,292.736098 639.022353,287.682963 636.683424,286.439715 C625.492123,280.491027 612.589021,262.47739 597.974119,232.398803 C597.364967,231.145119 600.426393,232.398803 604.25136,230.006049 C608.076327,227.613295 607.975623,225.00528 608.847634,226.445605 C616.267452,238.701111 623.231641,246.956345 630.809514,251.023712 C636.600894,254.132192 640.772494,258.193721 645.378828,263.528053 L659.999368,227.648661 C661.615509,223.244963 665.528445,217.884687 669.789638,216.812591 C670.01578,216.755694 677.040315,214.289627 690.863241,209.414389 C690.863241,221.079881 705.028407,270.451812 708.359457,273.633396 C709.901029,271.00887 715.63258,249.602534 725.554107,209.414389 L744.376283,216.415756 C746.667835,238.641189 746.667835,252.672167 744.376283,258.50869 C735.428087,281.299503 737.775038,288.003112 744.376283,300.070083 C734.132071,311.722335 721.331753,300.612188 707.132002,300.070083 C694.490262,299.587459 680.431828,310.990959 670.830614,300.070083 C675.214919,287.257857 679.082387,281.324855 671.51563,260.364323 C664.555274,272.675312 656.123813,287.621285 653.621811,289.844239 Z" id="Seller-base" fill="#5A5D88"></path>
                <path d="M653.621811,289.844239 C652.123923,291.175068 657.445114,283.285317 662.424462,269.037452 C664.42127,263.323799 665.741312,249.231512 667.500246,245.607473 C668.10978,244.351613 666.081806,255.656064 668.256631,258.423417 C667.500246,251.120687 669.949242,240.583264 670.91958,241.510063 C670.235807,246.257944 671.51563,262.000408 678.337151,273.316079 C681.963467,277.281992 696.710706,282.042951 705.964331,282.042951 C710.353245,282.042951 701.871889,286.314597 700.755908,292.226738 C700.692688,292.561659 667.006813,308.513298 672.859823,294.35096 C678.712834,280.188622 671.399294,259.700446 671.51563,260.364323 C664.555274,272.675312 656.123813,287.621285 653.621811,289.844239 Z" id="Seller-base" fill="#3C3F5D"></path>
                <path d="M709.936575,255.826177 C710.175398,255.988192 710.408559,256.158493 710.635631,256.336768 L764.842994,306.51971 C767.860137,308.888492 768.812522,312.884333 766.685827,316.055667 C764.559132,319.227001 760.339997,320.192615 757.026027,318.266461 L699.984312,278.257352 C690.895667,273.858763 681.223117,267.391123 693.899,258.909331 C694.155581,258.737645 704.271613,251.983149 709.936575,255.826177 Z" id="Seller-base" fill="#FFB0B6" transform="translate(727.825568, 286.950628) scale(-1, 1) rotate(-30.000000) translate(-727.825568, -286.950628) "></path>
                <path d="M772.1606,279.506284 C778.953808,293.238392 766.736635,294.312043 756.60955,293.560996 L701.653622,298.325684 C696.712309,298.754097 694.01651,283.298646 698.109194,282.400309 L748.061354,271.29847 C742.568021,258.850956 738.057625,249.578105 734.530167,243.479918 C733.393266,241.51447 736.373509,232.357776 743.470897,216.009836 C748.483785,216.999039 749.899985,219.663484 752.41955,226.5357 C765.574764,261.838334 772.155114,279.495196 772.1606,279.506284 Z" id="Seller-base" fill="#5A5D88"></path>
                <path d="M748.061354,271.29847 C745.909823,266.266732 744.452553,262.924538 743.689544,261.271889 C743.352125,260.541052 739.454052,273.898027 739.190198,273.338216 C738.909642,272.742971 710.961565,280.708363 710.824018,279.850132 C722.498284,277.777514 737.275173,273.338216 739.190198,267.840649 C740.938243,262.822439 742.642686,253.493927 744.303527,239.855113 C743.627326,246.821521 743.627326,254.625008 744.303527,256.526549 C745.104277,258.778329 745.183689,245.954607 746.549705,249.680474 L748.061354,271.29847 Z" id="Seller-base" fill="#3C3F5D"></path>
                <path d="M696.110345,184.186885 L717.703448,184.186885 L717.703448,216.816501 C715.002121,220.890746 711.403271,222.927869 706.906897,222.927869 C702.410522,222.927869 698.811672,220.890746 696.110345,216.816501 L696.110345,184.186885 Z" id="Seller-base" fill="#FFB0B6"></path>
                <path d="M696.110345,177.268852 L717.703448,177.268852 L713.367337,196.644302 C709.174172,207.389644 705.147808,213.634969 701.288247,215.380276 C697.428686,217.125584 695.702718,215.298315 696.110345,209.898469 L696.110345,177.268852 Z" id="Seller-base" fill="#E9989E"></path>
                <g id="Path-9-Copy" transform="translate(673.124138, 132.993443)">
                    <path d="M18.1377277,71.1781891 C26.4930181,71.1781891 53.9040045,54.0277159 53.9040045,38.8090488 C53.9040045,23.5903817 40.4629549,0.0855044773 25.1032449,0.0855044773 C9.74353498,0.0855044773 0.483285565,16.6210086 0.483285565,31.8396758 C0.483285565,34.7375758 3.59292544,37.10199 3.94136705,41.1003138 C4.25360772,44.6832363 3.51912237,51.7810161 3.94136705,53.0183084 C5.26573454,56.899067 15.0866899,71.1781891 18.1377277,71.1781891 Z" id="Seller-base" fill="#FFB0B6"></path>
                    <path d="M11.1449773,59.6738397 C11.1185881,59.5903716 10.8510769,58.0152767 13.1228242,57.9111018 C13.5789227,57.8901866 13.9885437,58.4366757 14.3171622,58.4366757 C14.6730228,58.4366757 15.1251747,57.9248765 15.6184086,57.9111018 C17.273335,57.8648841 20.1833402,59.524171 23.151365,59.2239324 C24.3346505,59.104234 24.1459713,58.3229285 24.4914896,58.3229285 C24.6249474,58.3229285 24.9264555,59.2555075 24.6249474,59.1651576 C24.2237114,59.0449233 24.2956556,59.030126 22.3641519,60.021141 C20.5578862,60.9478989 15.661093,60.2985188 14.3171622,60.2985188 C12.2461297,60.2985188 11.2319371,59.9488907 11.1449773,59.6738397 Z" id="Seller-base" fill="#FF5932"></path>
                    <path d="M12.8106372,62.486148 C16.2149333,63.6029255 18.2445376,63.0798475 21.4395026,61.5704918 C20.6399941,62.7837551 16.9762804,64.6151439 15.3677085,64.501403 C13.7591367,64.3876621 12.897597,62.761199 12.8106372,62.486148 Z" id="Seller-base" fill="#FF6868"></path>
                    <path d="M22.3360517,42.7653611 C22.0581705,42.891051 23.0600029,40.372913 24.498372,39.6338532 C24.5632806,39.5888956 24.6341009,39.5548223 24.7104434,39.5330807 C24.7286128,39.5279062 24.7468897,39.5234887 24.7652591,39.5198144 C24.7932477,39.5102896 24.8213727,39.5014891 24.8496282,39.4934421 C26.4717018,39.0314908 29.556706,41.3582107 29.1999681,41.4080721 C28.9789978,41.4389572 27.5607377,40.6347907 26.1615913,40.573247 C26.231154,40.7194182 26.291255,40.8769957 26.3393659,41.0436348 C26.6302775,42.0512479 26.3726449,43.0086133 25.7639274,43.1819704 C25.1552099,43.3553274 24.4259164,42.6790293 24.1350048,41.6714162 C24.0953477,41.534058 24.0658842,41.3976336 24.0461143,41.2640018 C23.2313872,41.8565004 22.612568,42.6402885 22.3360517,42.7653611 Z" id="Seller-base" fill="#0A1039"></path>
                    <path d="M6.6323212,41.2640018 C5.81759408,41.8565004 5.19877495,42.6402885 4.92225863,42.7653611 C4.64437743,42.891051 5.64620982,40.372913 7.08457891,39.6338532 C7.14948748,39.5888956 7.22030779,39.5548223 7.29665031,39.5330807 C7.31481972,39.5279062 7.33309656,39.5234887 7.35146596,39.5198144 C7.37945463,39.5102896 7.40757955,39.5014891 7.43583514,39.4934421 C9.05790872,39.0314908 12.1429129,41.3582107 11.786175,41.4080721 C11.5652047,41.4389572 10.1469446,40.6347907 8.74779821,40.573247 C8.81736088,40.7194182 8.87746186,40.8769957 8.92557284,41.0436348 C9.2164844,42.0512479 8.95885177,43.0086133 8.35013427,43.1819704 C7.74141676,43.3553274 7.0121233,42.6790293 6.72121174,41.6714162 C6.68155457,41.534058 6.65209113,41.3976336 6.6323212,41.2640018 Z" id="Seller-base" fill="#0A1039" transform="translate(8.345246, 41.320931) scale(-1, 1) translate(-8.345246, -41.320931) "></path>
                    <path d="M28.2485446,34.0775633 C30.3959401,34.8119303 31.2958436,38.3225958 29.3410109,37.2537853 C25.6003514,35.2085689 20.8152095,35.9134419 20.8976013,35.6615946 C21.092899,35.0646276 26.1011491,33.3431963 28.2485446,34.0775633 Z" id="Seller-base" fill="#0A1039" transform="translate(25.658847, 35.676482) scale(-1, 1) translate(-25.658847, -35.676482) "></path>
                    <path d="M10.8347515,34.7693665 C12.982147,35.5037335 13.8820505,39.0143991 11.9272178,37.9455886 C8.18655832,35.9003722 3.4014164,36.6052451 3.48380821,36.3533979 C3.67910589,35.7564309 8.68735596,34.0349996 10.8347515,34.7693665 Z" id="Seller-base" fill="#0A1039"></path>
                    <path d="M14.030693,40.511568 C15.0036934,42.5843733 15.2085291,44.3559001 14.6198953,45.8158087 C14.355368,46.4718798 14.1111475,46.8937581 13.226183,48.3140924 C12.8943842,48.8466168 12.6961397,49.1750851 12.5041932,49.5186787 C11.8665544,50.6600833 11.5780824,51.5276596 11.6446652,52.2860913 C11.6766574,52.6505079 12.5319047,53.3926754 14.2104073,54.5125939 C12.1420423,53.9880058 11.0345354,53.3006098 10.9507462,52.3461828 C10.8691884,51.4171738 11.1958405,50.4347711 11.8951114,49.1830422 C12.0938211,48.827342 12.2966298,48.4913115 12.6338691,47.9500552 C13.4932007,46.5708607 13.730215,46.1614308 13.9732637,45.5586301 C14.3116614,44.7193484 14.3308044,43.0369944 14.030693,40.511568 Z" id="Seller-base" fill="#FF6868"></path>
                    <path d="M15.8211977,54.6413978 C16.3181822,54.8012043 17.3723145,54.6396418 17.3723145,54.5760466 C17.3723145,54.5124514 15.4401511,53.8131293 15.3328568,53.9889108 C15.2645057,54.1008913 15.6140774,54.5747978 15.8211977,54.6413978 Z" id="Seller-base" fill="#7D3532"></path>
                    <path d="M17.4178438,54.9992033 C17.5099402,54.8043664 18.1703487,54.7192004 18.4972271,54.0300987 C18.8241055,53.340997 17.8177933,51.7407364 17.994071,51.8957559 C18.1703487,52.0507755 18.9041058,53.6757669 18.8850051,54.0368213 C18.8340927,54.9992033 17.3257475,55.1940402 17.4178438,54.9992033 Z" id="Seller-base" fill="#FF6868"></path>
                </g>
                <path d="M716.435233,176.982235 C716.357295,176.900743 717.151705,176.284609 717.50248,175.833513 C717.747908,175.517895 717.675183,174.94829 717.382784,174.990574 C716.620723,175.100776 714.846638,173.860898 715.984606,172.462989 C716.649333,171.646422 717.454777,170.812148 718.174028,170.441535 C719.239871,169.892331 720.289564,172.014737 720.10096,172.052241 C719.912355,172.089745 719.126158,170.589251 718.463344,170.930784 C717.854943,171.244279 717.145692,172.128543 716.541576,172.87843 C715.782335,173.820873 717.090209,174.429849 717.623654,174.630058 C718.085428,174.803369 718.215527,175.220786 718.002941,175.689061 C717.844331,176.038442 716.567704,177.120745 716.435233,176.982235 Z" id="Seller-base" fill="#FF6868"></path>
                <path d="M721.818113,129.218813 C722.076123,129.016285 722.341479,128.826622 722.614127,128.651198 C729.317223,124.338361 739.515551,122.663284 746.190784,127.920048 C748.598242,129.815928 748.558646,133.911249 751.522989,136.116984 C764.086785,145.465569 744.819976,155.476936 746.190784,164.119058 C742.416241,161.649134 750.469757,152.423426 747.23644,154.885551 C743.876897,157.443795 741.114813,158.79886 738.706085,159.486611 C737.310721,167.79485 728.374185,187.459662 720.006799,192.561071 C719.725154,192.732784 719.416005,193.890025 719.83699,194.728567 C720.257975,195.567109 718.578113,193.29521 718.287044,193.399999 C718.000937,193.503001 717.876147,194.728567 717.876147,195.189307 C717.876147,195.650047 716.613722,193.787098 716.21043,193.787098 C716.017668,193.615301 715.298532,194.489428 715.11626,194.329955 C714.933895,194.170399 715.019693,193.023292 715.11626,192.828586 C717.876147,187.263896 718.931347,189.339306 718.425692,184.570807 C718.262527,184.570807 716.544552,184.785961 715.893662,186.141465 C715.074409,187.847593 715.308312,190.753432 715.290969,190.483768 C715.277888,190.280364 714.864734,187.565228 715.457296,185.878729 C716.121936,183.987085 717.820733,183.092608 718.219025,182.642794 C718.226144,182.170389 718.226144,181.323493 718.219025,181.053653 C721.610254,178.995871 723.938817,169.295418 719.83699,167.291943 C714.068041,164.474188 714.428433,173.88774 713.458816,173.88774 C712.548229,173.88774 712.512666,175.584081 711.631465,167.865789 C705.889856,169.597038 699.07035,167.059634 698.788885,160.400319 C699.346819,171.324412 714.83239,169.862353 714.409536,170.068691 C714.287232,170.128371 713.923115,170.854591 712.050134,170.854591 C705.757157,170.854591 698.788885,170.5018 696.801408,160.577773 C691.019041,163.37479 677.408051,165.216533 673.532763,165.216533 C664.253208,164.412866 659.920415,153.52999 661.123431,147.179882 C662.326447,140.829774 668.277644,137.509886 679.006829,136.321731 C689.736014,135.133576 692.965584,120.447801 718.389586,128.083181 C719.59837,128.446205 720.74002,128.825248 721.818113,129.218813 Z" id="Seller-base" fill="#0A1039"></path>
                <path d="M677.554016,214.55913 C678.794591,226.29796 680.132261,233.734396 681.567025,236.868437 C683.001789,240.002478 686.108264,242.273655 690.886451,243.681967 C687.26951,246.254066 685.840473,249.18232 686.599338,252.466728 C687.358203,255.751136 694.397114,263.315404 707.716072,275.159533" id="Seller-base" stroke="#FFFFFF" stroke-linecap="round" stroke-linejoin="round"></path>
                <path d="M711.807816,260.507202 L707.199806,277.885277 C721.681669,259.666014 729.424266,249.503356 730.427596,247.397304 C731.430927,245.291251 730.220431,242.89999 726.796111,240.223521 C730.131428,239.598814 732.803252,237.232011 734.811583,233.123111 C736.819914,229.014211 737.78021,222.880083 737.69247,214.720726" id="Seller-base" stroke="#FFFFFF" stroke-linecap="round" stroke-linejoin="round"></path>
                <path d="M645.359781,263.855265 C645.359781,268.891735 645.359781,272.12905 645.359781,273.56721 C645.359781,275.72445 636.762179,257.387573 636.762179,255.409599 C638.180337,255.867191 641.046205,258.682413 645.359781,263.855265 Z" id="Seller-base" fill="#3C3F5D"></path>
            </g>
        </g>
    </g>
</svg>