<?xml version="1.0" encoding="UTF-8"?>
<svg width="25px" height="25px" viewBox="0 0 25 25" version="1.1" xmlns="http://www.w3.org/2000/svg" xmlns:xlink="http://www.w3.org/1999/xlink">
    <!-- Generator: Sketch 52.3 (67297) - http://www.bohemiancoding.com/sketch -->
    <title>Page 1</title>
    <desc>Created with Sketch.</desc>
    <defs>
        <polygon id="path-1" points="0 0.131060606 24.868 0.131060606 24.868 24.6211742 0 24.6211742"></polygon>
    </defs>
    <g id="Page-1" stroke="none" stroke-width="1" fill="none" fill-rule="evenodd">
        <g id="4" transform="translate(-536.000000, -358.000000)">
            <g id="Page-1" transform="translate(536.000000, 358.000000)">
                <path d="M9.61826923,17.2642424 C9.85903846,17.5210606 9.84326923,17.9214394 9.58288462,18.1589394 C9.32211538,18.3960606 8.91519231,18.3805303 8.67403846,18.1240909 L5.03673077,14.2502273 C4.79596154,13.9934091 4.81173077,13.5930303 5.0725,13.3555303 C5.33326923,13.1184091 5.73980769,13.1339394 5.98057692,13.3903788 L9.61826923,17.2642424 Z" id="Fill-5" fill="#FFFFFF"></path>
                <path d="M18.6950385,8.15484848 C18.9554231,7.91734848 19.3688846,7.94007576 19.6177308,8.20522727 C19.8665769,8.47037879 19.8573462,8.87795455 19.5969615,9.11507576 L9.63196154,18.1904545 C9.37119231,18.4279545 8.95811538,18.4056061 8.70888462,18.1400758 C8.46003846,17.8749242 8.46926923,17.4677273 8.72965385,17.2302273 L18.6950385,8.15484848 Z" id="Fill-7" fill="#FFFFFF"></path>
                <g id="Group-11" transform="translate(0.000000, 0.247576)">
                    <mask id="mask-2" fill="white">
                        <use xlink:href="#path-1"></use>
                    </mask>
                    <g id="Clip-10"></g>
                    <path d="M12.4341538,1.42496212 C6.303,1.42496212 1.31415385,6.3382197 1.31415385,12.3760985 C1.31415385,18.4143561 6.303,23.3272348 12.4341538,23.3272348 C18.5653077,23.3272348 23.5533846,18.4143561 23.5533846,12.3760985 C23.5533846,6.3382197 18.5653077,1.42496212 12.4341538,1.42496212 M-7.69230769e-05,12.3760985 C-7.69230769e-05,5.62420455 5.578,0.131022727 12.4341538,0.131022727 C19.2903077,0.131022727 24.868,5.62420455 24.868,12.3760985 C24.868,19.1279924 19.2903077,24.6211742 12.4341538,24.6211742 C5.578,24.6211742 -7.69230769e-05,19.1279924 -7.69230769e-05,12.3760985 Z" id="Fill-9" fill="#7990DD" mask="url(#mask-2)"></path>
                </g>
            </g>
        </g>
    </g>
</svg>