<?xml version="1.0" encoding="UTF-8"?>
<svg width="26px" height="26px" viewBox="0 0 26 26" version="1.1" xmlns="http://www.w3.org/2000/svg" xmlns:xlink="http://www.w3.org/1999/xlink">
    <!-- Generator: Sketch 52.3 (67297) - http://www.bohemiancoding.com/sketch -->
    <title>Page 1</title>
    <desc>Created with Sketch.</desc>
    <defs>
        <polygon id="path-1" points="0 0.136342424 25.8628 0.136342424 25.8628 25.6060606 0 25.6060606"></polygon>
    </defs>
    <g id="Page-1" stroke="none" stroke-width="1" fill="none" fill-rule="evenodd">
        <g id="4" transform="translate(-640.000000, -358.000000)">
            <g id="TOOLTIPS" transform="translate(510.000000, 355.000000)">
                <g id="Page-1" transform="translate(130.000000, 3.000000)">
                    <g id="Group-5" transform="translate(0.000000, 0.257479)">
                        <mask id="mask-2" fill="white">
                            <use xlink:href="#path-1"></use>
                        </mask>
                        <g id="Clip-4"></g>
                        <path d="M12.9316,1.48203939 C6.5548,1.48203939 1.3668,6.59182727 1.3668,12.8712212 C1.3668,19.1510091 6.5548,24.260403 12.9316,24.260403 C19.308,24.260403 24.4956,19.1510091 24.4956,12.8712212 C24.4956,6.59182727 19.308,1.48203939 12.9316,1.48203939 M12.9316,25.6061 C5.8012,25.6061 0,19.8931909 0,12.8712212 C0,5.84925152 5.8012,0.136342424 12.9316,0.136342424 C20.062,0.136342424 25.8628,5.84925152 25.8628,12.8712212 C25.8628,19.8931909 20.062,25.6061 12.9316,25.6061" id="Fill-3" fill="#FFE4E5" mask="url(#mask-2)"></path>
                    </g>
                    <path d="M18.2304,17.7702515 C18.4808,18.0369485 18.4572,18.4604333 18.1772,18.7153121 C17.8968,18.9705848 17.4664,18.9607364 17.216,18.6940394 L7.6324,8.48785758 C7.3816,8.22076667 7.4056,7.79728182 7.6856,7.54200909 C7.9656,7.2871303 8.396,7.29658485 8.6468,7.56367576 L18.2304,17.7702515 Z" id="Fill-6" fill="#FFFFFF"></path>
                    <path d="M7.63236,17.7702515 C7.38156,18.0369485 7.40556,18.4604333 7.68556,18.7153121 C7.96556,18.9705848 8.39596,18.9607364 8.64676,18.6940394 L18.23036,8.48785758 C18.48116,8.22076667 18.45716,7.79728182 18.17716,7.54200909 C17.89716,7.2871303 17.46636,7.29658485 17.21596,7.56367576 L7.63236,17.7702515 Z" id="Fill-8" fill="#FFFFFF"></path>
                </g>
            </g>
        </g>
    </g>
</svg>