<svg width="488" height="411" viewBox="0 0 488 411" fill="none" xmlns="http://www.w3.org/2000/svg">
<path d="M245.971 358.228C279.421 333.905 311.074 300.945 284.246 266.338C257.419 231.731 239.051 266.177 223.736 252.361C208.421 238.545 229.602 199.499 198.25 176.125C166.897 152.752 135.444 183.15 126.403 157.625C117.362 132.1 88.5659 130.342 83.009 135.964C77.4521 141.587 73.1794 142.046 74.2741 171.922C75.3688 201.798 63.7416 211.456 73.1273 230.29C82.5131 249.123 109.169 242.449 123.818 270.134C138.467 297.818 113.077 327.692 145.998 357.391C178.919 387.09 212.52 382.551 245.971 358.228Z" fill="#FF8E88"/>
<path fill-rule="evenodd" clip-rule="evenodd" d="M124.957 154.445C122.054 169.493 116.858 179.731 109.326 185.191C103.663 171.418 94.777 155.079 82.6691 136.166C82.2219 136.612 81.7834 137.027 81.3557 137.428C93.4134 156.288 102.232 172.55 107.812 186.205C99.2676 191.472 87.9445 191.063 73.7873 185.019C73.7315 185.65 73.6706 186.269 73.6054 186.879C87.98 192.896 99.6249 193.219 108.488 187.885C109.698 190.948 110.74 193.875 111.614 196.666C101.749 200.788 88.9038 199.065 73.0073 191.515C72.9138 192.137 72.8169 192.749 72.7173 193.351C88.7769 200.881 101.939 202.554 112.136 198.385C112.229 198.701 112.32 199.016 112.408 199.328C114.524 206.805 117.174 214.288 120.312 221.734C101.768 223.608 84.7824 222.003 69.3454 216.916C69.3758 217.555 69.4258 218.197 69.4974 218.843C85.1362 223.874 102.322 225.411 121.045 223.454C126.46 235.99 133.253 248.409 141.213 260.496C132.99 261.338 125.058 261.433 117.416 260.781C117.956 261.393 118.489 262.03 119.013 262.695C126.515 263.223 134.287 263.05 142.327 262.174C145.734 267.265 149.347 272.295 153.151 277.247C145.613 280.731 137.356 283.313 128.38 284.994C128.454 285.587 128.519 286.18 128.575 286.774C137.898 285.039 146.464 282.346 154.271 278.697C161.254 287.673 168.86 296.389 176.995 304.748C186.28 314.288 196.012 323.08 205.767 330.85C177.544 337.795 151.784 335.613 128.45 324.304C128.527 325.007 128.617 325.709 128.72 326.412C152.525 337.641 178.809 339.587 207.536 332.248C211.783 335.575 216.028 338.706 220.238 341.617C196.822 354.06 167.408 352.902 131.949 338.179C132.282 338.97 132.642 339.761 133.03 340.552C168.658 354.972 198.296 355.694 221.896 342.754C230.613 348.676 239.156 353.638 247.21 357.44C247.757 357.04 248.302 356.639 248.847 356.234C240.85 352.528 232.337 347.639 223.631 341.772C247.392 327.89 264.874 299.803 276.026 257.55C275.514 257.119 275.006 256.712 274.5 256.327C263.367 298.993 245.881 327.089 221.989 340.655C217.922 337.864 213.818 334.865 209.708 331.677C209.898 331.625 210.088 331.573 210.278 331.521L209.803 329.799C209.182 329.97 208.563 330.136 207.945 330.297C197.897 322.372 187.848 313.338 178.275 303.503C174.085 299.197 170.035 294.796 166.14 290.313C194.668 271.753 211.45 244.948 216.464 209.959C216.223 207.82 215.895 205.676 215.447 203.542C211.644 241.154 194.824 269.598 164.96 288.947C161.843 285.317 158.827 281.634 155.92 277.907C184.987 263.623 203.242 235.72 210.623 194.253L208.865 193.936C201.559 234.982 183.558 262.473 154.802 276.464C135.829 251.827 121.609 225.275 114.127 198.843C114.016 198.448 113.9 198.05 113.781 197.65C123.373 192.98 130.163 182.797 134.09 167.116C133.529 166.861 132.988 166.569 132.467 166.236C128.733 181.465 122.348 191.353 113.251 195.915C112.345 193.045 111.267 190.037 110.015 186.891C117.626 181.546 123.023 171.706 126.168 157.398C125.796 156.375 125.391 155.391 124.957 154.445Z" fill="white"/>
<path d="M279.228 362.48C232.988 372.569 180.795 374.338 171.967 323.922C163.139 273.506 206.424 284.462 206.424 260.327C206.424 236.192 157.084 224.088 161.25 178.52C165.416 132.952 227.954 129.14 213.218 101.308C198.481 73.4753 185.747 29.1608 213.218 22.9279C240.688 16.6951 228.066 43.0152 252.576 67.3349C277.087 91.6546 294.181 89.089 302.976 111.988C311.771 134.887 285.706 152.865 297.982 187.268C310.258 221.67 355.038 222.938 355.038 274.818C355.038 326.697 325.468 352.391 279.228 362.48Z" fill="#374ABE"/>
<path fill-rule="evenodd" clip-rule="evenodd" d="M215.071 106.099C223.295 109.091 230.63 109.862 237.089 108.409C227.586 88.2366 218.553 60.0725 209.98 23.9055C210.525 23.6951 211.091 23.503 211.676 23.3297C220.281 59.6578 229.341 87.8693 238.846 107.953C249.944 104.673 258.325 94.4882 264.058 77.3809C264.561 77.7663 265.06 78.1423 265.555 78.5094C259.657 95.7502 250.992 106.114 239.627 109.584C241.355 113.143 243.097 116.436 244.853 119.462C255.993 114.142 264.414 101.594 270.176 81.7728C270.699 82.1252 271.217 82.469 271.73 82.8051C265.842 102.725 257.168 115.473 245.765 121.007C245.991 121.383 246.217 121.754 246.443 122.122C251.144 129.75 255.448 137.84 259.352 146.32C275.479 131.582 286.954 115.512 294.041 97.9655C294.502 98.4175 294.953 98.8834 295.395 99.3652C288.123 117.027 276.452 133.205 260.129 148.026C266.794 162.795 272.257 178.719 276.498 195.424C283.59 188.929 289.761 182.182 295.042 175.168C295.144 175.977 295.267 176.795 295.411 177.623C290.124 184.463 283.992 191.047 276.99 197.389C278.665 204.163 280.14 211.061 281.413 218.061C290.152 214.247 298.689 209.149 307.028 202.768C307.411 203.224 307.801 203.675 308.197 204.121C299.591 210.716 290.771 215.966 281.737 219.868C284.082 233.149 285.706 246.782 286.599 260.601C287.602 276.128 287.627 291.458 286.764 306.007C314.592 287.108 332.535 263.061 340.616 233.838C341.086 234.379 341.549 234.928 342.004 235.486C333.543 264.989 315.075 289.254 286.624 308.254C286.205 314.602 285.617 320.794 284.867 326.78C313.267 316.031 334.896 289.779 349.809 248.009C350.165 248.799 350.505 249.607 350.829 250.433C335.585 292.112 313.492 318.233 284.609 328.783C282.964 341.207 280.614 352.705 277.631 362.824C276.971 362.965 276.309 363.104 275.647 363.242C278.661 353.236 281.043 341.817 282.721 329.448C252.618 339.636 215.288 333.251 170.791 310.277C170.806 309.605 170.833 308.948 170.872 308.307C215.669 331.585 253.018 337.977 282.983 327.466C283.729 321.658 284.322 315.65 284.753 309.487C284.576 309.602 284.398 309.717 284.221 309.831L283.258 308.327C283.81 307.971 284.357 307.614 284.902 307.254C285.843 292.382 285.85 276.655 284.82 260.716C284.352 253.47 283.682 246.275 282.811 239.157C245.569 249.392 210.398 243.777 177.356 222.333C175.893 220.717 174.468 219.044 173.109 217.302C207.318 241.419 243.787 248.098 282.587 237.363C281.869 231.715 281.023 226.117 280.052 220.58C245.238 234.935 207.279 229.408 166.256 203.987L167.19 202.465C207.85 227.661 245.336 233.103 279.731 218.778C273.291 183.155 261.622 150.155 244.927 123.061C244.66 122.628 244.394 122.189 244.128 121.745C234.856 125.601 223.86 124.896 211.17 119.607C211.578 119.126 211.961 118.64 212.318 118.15C224.218 123.024 234.507 123.709 243.211 120.185C241.416 117.083 239.638 113.708 237.876 110.059C231.253 111.635 223.757 110.979 215.4 108.088C215.339 107.439 215.23 106.776 215.071 106.099Z" fill="white"/>
<path d="M339.842 363.63C294.334 365.115 246.674 356.75 258.148 302.391C269.622 248.031 296.413 290.117 307.43 261.229C318.448 232.341 283.209 217.785 283.895 191.602C284.582 165.419 335.1 178.596 333.045 164.796C330.817 149.823 309.701 134.878 318.129 105.724C326.558 76.5688 364.978 99.1596 362.435 67.2203C359.891 35.281 355.061 9.19464 382.188 8.06232C409.315 6.93001 414.538 39.1072 427.232 69.2915C439.926 99.4758 458.612 81.1462 457.708 106.772C456.804 132.399 426.417 146.068 424.215 184.384C422.012 222.701 461.831 232.786 441.847 286.946C421.863 341.107 385.349 362.145 339.842 363.63Z" fill="#000140"/>
<path fill-rule="evenodd" clip-rule="evenodd" d="M362.119 64.5895L363.536 63.5641C374.474 78.8239 384.984 87.6538 395.124 90.048C396.287 63.7063 386.76 38.347 366.514 13.9454C366.924 13.5172 367.358 13.1104 367.818 12.7256C388.455 37.5726 398.157 63.4728 396.893 90.4011C407.911 92.1948 418.492 86.3249 428.713 72.784C429.012 73.3849 429.314 73.9626 429.618 74.5183C419.14 88.0922 408.174 93.9868 396.793 92.1949C396.42 97.9358 395.551 103.723 394.185 109.557C391.734 120.018 389.494 130.143 387.442 140.009C413.725 129.151 430.694 110.874 438.375 85.1186C438.89 85.506 439.403 85.8623 439.914 86.1921C431.994 112.196 414.687 130.722 388.019 141.71L387.402 140.203C382.941 161.671 379.372 181.916 376.47 201.735C395.475 201.105 411.484 198.406 424.513 193.634C424.588 194.241 424.674 194.842 424.77 195.435C411.535 200.225 395.347 202.926 376.22 203.537L376.218 203.47C375.311 209.739 374.471 215.968 373.69 222.181C373.765 222.184 373.84 222.186 373.915 222.189L373.864 223.98C373.731 223.976 373.599 223.971 373.467 223.967C372.632 230.701 371.866 237.42 371.16 244.157C370.464 250.792 369.231 264.705 367.99 278.702L367.99 278.703L367.99 278.703C367.217 287.424 366.441 296.177 365.79 303.223C408.586 297.805 430.494 275.229 439.905 231.188L440.515 231.321C440.792 231.883 441.064 232.448 441.332 233.017C431.564 276.956 408.991 299.681 365.62 305.05C365.144 310.155 364.747 314.189 364.485 316.393C364.428 316.868 364.371 317.339 364.313 317.807C389.81 316.655 417.441 298.971 447.28 264.73C447.187 265.747 447.068 266.782 446.923 267.838C417.287 301.29 389.652 318.556 364.086 319.613C361.753 337.718 358.5 350.788 352.992 362.601C352.298 362.686 351.602 362.766 350.903 362.841C356.581 351.015 359.907 337.965 362.282 319.661C336.996 319.953 313.752 304.269 292.616 272.586C293.314 272.575 294.004 272.539 294.684 272.47C315.336 303.083 337.923 318.22 362.51 317.861C362.579 317.304 362.647 316.742 362.715 316.176C363.351 310.838 364.784 294.674 366.209 278.594L366.21 278.59L366.21 278.589L366.21 278.584L366.21 278.584C367.453 264.571 368.689 250.624 369.387 243.965C370.09 237.265 370.851 230.582 371.681 223.884C342.19 222.216 319.665 205.672 304.136 174.358C304.742 174.244 305.351 174.137 305.963 174.036C321.224 204.532 343.193 220.519 371.903 222.102C376.372 186.514 382.777 150.437 392.45 109.142C393.81 103.334 394.67 97.5718 395.027 91.8559C384.396 89.4497 373.408 80.3853 362.124 64.6571C362.122 64.6346 362.121 64.612 362.119 64.5895Z" fill="white"/>
</svg>
